<mxfile host="Electron" agent="Mozilla/5.0 (Windows NT 10.0; Win64; x64) AppleWebKit/537.36 (KHTML, like Gecko) draw.io/26.2.2 Chrome/134.0.6998.178 Electron/35.1.2 Safari/537.36" version="26.2.2">
  <diagram id="R2lEEEUBdFMjLlhIrx00" name="Page-1">
    <mxGraphModel dx="2744" dy="2068" grid="1" gridSize="10" guides="1" tooltips="1" connect="1" arrows="1" fold="1" page="1" pageScale="1" pageWidth="850" pageHeight="1400" math="0" shadow="0" extFonts="Permanent Marker^https://fonts.googleapis.com/css?family=Permanent+Marker">
      <root>
        <mxCell id="0" />
        <mxCell id="1" parent="0" />
        <mxCell id="ocFZIZSYFdL7Tnu5M3Te-75" value="book" style="shape=table;startSize=30;container=1;collapsible=0;childLayout=tableLayout;fontStyle=1" parent="1" vertex="1">
          <mxGeometry x="-900" y="-900" width="140" height="340" as="geometry" />
        </mxCell>
        <mxCell id="ocFZIZSYFdL7Tnu5M3Te-76" value="" style="shape=tableRow;horizontal=0;startSize=0;swimlaneHead=0;swimlaneBody=0;strokeColor=inherit;top=0;left=0;bottom=0;right=0;collapsible=0;dropTarget=0;fillColor=none;points=[[0,0.5],[1,0.5]];portConstraint=eastwest;" parent="ocFZIZSYFdL7Tnu5M3Te-75" vertex="1">
          <mxGeometry y="30" width="140" height="40" as="geometry" />
        </mxCell>
        <mxCell id="ocFZIZSYFdL7Tnu5M3Te-77" value="&lt;b&gt;PK&lt;/b&gt;" style="shape=partialRectangle;html=1;whiteSpace=wrap;connectable=0;strokeColor=inherit;overflow=hidden;fillColor=none;top=0;left=0;bottom=0;right=0;pointerEvents=1;" parent="ocFZIZSYFdL7Tnu5M3Te-76" vertex="1">
          <mxGeometry width="30" height="40" as="geometry">
            <mxRectangle width="30" height="40" as="alternateBounds" />
          </mxGeometry>
        </mxCell>
        <mxCell id="ocFZIZSYFdL7Tnu5M3Te-78" value="&lt;b&gt;book_id&lt;/b&gt;" style="shape=partialRectangle;html=1;whiteSpace=wrap;connectable=0;strokeColor=inherit;overflow=hidden;fillColor=none;top=0;left=0;bottom=0;right=0;pointerEvents=1;" parent="ocFZIZSYFdL7Tnu5M3Te-76" vertex="1">
          <mxGeometry x="30" width="110" height="40" as="geometry">
            <mxRectangle width="110" height="40" as="alternateBounds" />
          </mxGeometry>
        </mxCell>
        <mxCell id="ocFZIZSYFdL7Tnu5M3Te-79" value="" style="shape=tableRow;horizontal=0;startSize=0;swimlaneHead=0;swimlaneBody=0;strokeColor=inherit;top=0;left=0;bottom=0;right=0;collapsible=0;dropTarget=0;fillColor=none;points=[[0,0.5],[1,0.5]];portConstraint=eastwest;" parent="ocFZIZSYFdL7Tnu5M3Te-75" vertex="1">
          <mxGeometry y="70" width="140" height="30" as="geometry" />
        </mxCell>
        <mxCell id="ocFZIZSYFdL7Tnu5M3Te-80" value="" style="shape=partialRectangle;html=1;whiteSpace=wrap;connectable=0;strokeColor=inherit;overflow=hidden;fillColor=none;top=0;left=0;bottom=0;right=0;pointerEvents=1;" parent="ocFZIZSYFdL7Tnu5M3Te-79" vertex="1">
          <mxGeometry width="30" height="30" as="geometry">
            <mxRectangle width="30" height="30" as="alternateBounds" />
          </mxGeometry>
        </mxCell>
        <mxCell id="ocFZIZSYFdL7Tnu5M3Te-81" value="tittle" style="shape=partialRectangle;html=1;whiteSpace=wrap;connectable=0;strokeColor=inherit;overflow=hidden;fillColor=none;top=0;left=0;bottom=0;right=0;pointerEvents=1;" parent="ocFZIZSYFdL7Tnu5M3Te-79" vertex="1">
          <mxGeometry x="30" width="110" height="30" as="geometry">
            <mxRectangle width="110" height="30" as="alternateBounds" />
          </mxGeometry>
        </mxCell>
        <mxCell id="ocFZIZSYFdL7Tnu5M3Te-82" value="" style="shape=tableRow;horizontal=0;startSize=0;swimlaneHead=0;swimlaneBody=0;strokeColor=inherit;top=0;left=0;bottom=0;right=0;collapsible=0;dropTarget=0;fillColor=none;points=[[0,0.5],[1,0.5]];portConstraint=eastwest;" parent="ocFZIZSYFdL7Tnu5M3Te-75" vertex="1">
          <mxGeometry y="100" width="140" height="40" as="geometry" />
        </mxCell>
        <mxCell id="ocFZIZSYFdL7Tnu5M3Te-83" value="" style="shape=partialRectangle;html=1;whiteSpace=wrap;connectable=0;strokeColor=inherit;overflow=hidden;fillColor=none;top=0;left=0;bottom=0;right=0;pointerEvents=1;" parent="ocFZIZSYFdL7Tnu5M3Te-82" vertex="1">
          <mxGeometry width="30" height="40" as="geometry">
            <mxRectangle width="30" height="40" as="alternateBounds" />
          </mxGeometry>
        </mxCell>
        <mxCell id="ocFZIZSYFdL7Tnu5M3Te-84" value="ISBN" style="shape=partialRectangle;html=1;whiteSpace=wrap;connectable=0;strokeColor=inherit;overflow=hidden;fillColor=none;top=0;left=0;bottom=0;right=0;pointerEvents=1;" parent="ocFZIZSYFdL7Tnu5M3Te-82" vertex="1">
          <mxGeometry x="30" width="110" height="40" as="geometry">
            <mxRectangle width="110" height="40" as="alternateBounds" />
          </mxGeometry>
        </mxCell>
        <mxCell id="ocFZIZSYFdL7Tnu5M3Te-85" value="" style="shape=tableRow;horizontal=0;startSize=0;swimlaneHead=0;swimlaneBody=0;strokeColor=inherit;top=0;left=0;bottom=0;right=0;collapsible=0;dropTarget=0;fillColor=none;points=[[0,0.5],[1,0.5]];portConstraint=eastwest;" parent="ocFZIZSYFdL7Tnu5M3Te-75" vertex="1">
          <mxGeometry y="140" width="140" height="40" as="geometry" />
        </mxCell>
        <mxCell id="ocFZIZSYFdL7Tnu5M3Te-86" value="" style="shape=partialRectangle;html=1;whiteSpace=wrap;connectable=0;strokeColor=inherit;overflow=hidden;fillColor=none;top=0;left=0;bottom=0;right=0;pointerEvents=1;" parent="ocFZIZSYFdL7Tnu5M3Te-85" vertex="1">
          <mxGeometry width="30" height="40" as="geometry">
            <mxRectangle width="30" height="40" as="alternateBounds" />
          </mxGeometry>
        </mxCell>
        <mxCell id="ocFZIZSYFdL7Tnu5M3Te-87" value="publisher_id" style="shape=partialRectangle;html=1;whiteSpace=wrap;connectable=0;strokeColor=inherit;overflow=hidden;fillColor=none;top=0;left=0;bottom=0;right=0;pointerEvents=1;" parent="ocFZIZSYFdL7Tnu5M3Te-85" vertex="1">
          <mxGeometry x="30" width="110" height="40" as="geometry">
            <mxRectangle width="110" height="40" as="alternateBounds" />
          </mxGeometry>
        </mxCell>
        <mxCell id="ocFZIZSYFdL7Tnu5M3Te-88" value="" style="shape=tableRow;horizontal=0;startSize=0;swimlaneHead=0;swimlaneBody=0;strokeColor=inherit;top=0;left=0;bottom=0;right=0;collapsible=0;dropTarget=0;fillColor=none;points=[[0,0.5],[1,0.5]];portConstraint=eastwest;" parent="ocFZIZSYFdL7Tnu5M3Te-75" vertex="1">
          <mxGeometry y="180" width="140" height="40" as="geometry" />
        </mxCell>
        <mxCell id="ocFZIZSYFdL7Tnu5M3Te-89" value="" style="shape=partialRectangle;html=1;whiteSpace=wrap;connectable=0;strokeColor=inherit;overflow=hidden;fillColor=none;top=0;left=0;bottom=0;right=0;pointerEvents=1;" parent="ocFZIZSYFdL7Tnu5M3Te-88" vertex="1">
          <mxGeometry width="30" height="40" as="geometry">
            <mxRectangle width="30" height="40" as="alternateBounds" />
          </mxGeometry>
        </mxCell>
        <mxCell id="ocFZIZSYFdL7Tnu5M3Te-90" value="language_id" style="shape=partialRectangle;html=1;whiteSpace=wrap;connectable=0;strokeColor=inherit;overflow=hidden;fillColor=none;top=0;left=0;bottom=0;right=0;pointerEvents=1;" parent="ocFZIZSYFdL7Tnu5M3Te-88" vertex="1">
          <mxGeometry x="30" width="110" height="40" as="geometry">
            <mxRectangle width="110" height="40" as="alternateBounds" />
          </mxGeometry>
        </mxCell>
        <mxCell id="8h3b-cIPUra0p9pFavSq-4" style="shape=tableRow;horizontal=0;startSize=0;swimlaneHead=0;swimlaneBody=0;strokeColor=inherit;top=0;left=0;bottom=0;right=0;collapsible=0;dropTarget=0;fillColor=none;points=[[0,0.5],[1,0.5]];portConstraint=eastwest;" vertex="1" parent="ocFZIZSYFdL7Tnu5M3Te-75">
          <mxGeometry y="220" width="140" height="40" as="geometry" />
        </mxCell>
        <mxCell id="8h3b-cIPUra0p9pFavSq-5" style="shape=partialRectangle;html=1;whiteSpace=wrap;connectable=0;strokeColor=inherit;overflow=hidden;fillColor=none;top=0;left=0;bottom=0;right=0;pointerEvents=1;" vertex="1" parent="8h3b-cIPUra0p9pFavSq-4">
          <mxGeometry width="30" height="40" as="geometry">
            <mxRectangle width="30" height="40" as="alternateBounds" />
          </mxGeometry>
        </mxCell>
        <mxCell id="8h3b-cIPUra0p9pFavSq-6" value="price" style="shape=partialRectangle;html=1;whiteSpace=wrap;connectable=0;strokeColor=inherit;overflow=hidden;fillColor=none;top=0;left=0;bottom=0;right=0;pointerEvents=1;" vertex="1" parent="8h3b-cIPUra0p9pFavSq-4">
          <mxGeometry x="30" width="110" height="40" as="geometry">
            <mxRectangle width="110" height="40" as="alternateBounds" />
          </mxGeometry>
        </mxCell>
        <mxCell id="8h3b-cIPUra0p9pFavSq-7" style="shape=tableRow;horizontal=0;startSize=0;swimlaneHead=0;swimlaneBody=0;strokeColor=inherit;top=0;left=0;bottom=0;right=0;collapsible=0;dropTarget=0;fillColor=none;points=[[0,0.5],[1,0.5]];portConstraint=eastwest;" vertex="1" parent="ocFZIZSYFdL7Tnu5M3Te-75">
          <mxGeometry y="260" width="140" height="40" as="geometry" />
        </mxCell>
        <mxCell id="8h3b-cIPUra0p9pFavSq-8" style="shape=partialRectangle;html=1;whiteSpace=wrap;connectable=0;strokeColor=inherit;overflow=hidden;fillColor=none;top=0;left=0;bottom=0;right=0;pointerEvents=1;" vertex="1" parent="8h3b-cIPUra0p9pFavSq-7">
          <mxGeometry width="30" height="40" as="geometry">
            <mxRectangle width="30" height="40" as="alternateBounds" />
          </mxGeometry>
        </mxCell>
        <mxCell id="8h3b-cIPUra0p9pFavSq-9" value="publication year" style="shape=partialRectangle;html=1;whiteSpace=wrap;connectable=0;strokeColor=inherit;overflow=hidden;fillColor=none;top=0;left=0;bottom=0;right=0;pointerEvents=1;" vertex="1" parent="8h3b-cIPUra0p9pFavSq-7">
          <mxGeometry x="30" width="110" height="40" as="geometry">
            <mxRectangle width="110" height="40" as="alternateBounds" />
          </mxGeometry>
        </mxCell>
        <mxCell id="8h3b-cIPUra0p9pFavSq-10" style="shape=tableRow;horizontal=0;startSize=0;swimlaneHead=0;swimlaneBody=0;strokeColor=inherit;top=0;left=0;bottom=0;right=0;collapsible=0;dropTarget=0;fillColor=none;points=[[0,0.5],[1,0.5]];portConstraint=eastwest;" vertex="1" parent="ocFZIZSYFdL7Tnu5M3Te-75">
          <mxGeometry y="300" width="140" height="40" as="geometry" />
        </mxCell>
        <mxCell id="8h3b-cIPUra0p9pFavSq-11" style="shape=partialRectangle;html=1;whiteSpace=wrap;connectable=0;strokeColor=inherit;overflow=hidden;fillColor=none;top=0;left=0;bottom=0;right=0;pointerEvents=1;" vertex="1" parent="8h3b-cIPUra0p9pFavSq-10">
          <mxGeometry width="30" height="40" as="geometry">
            <mxRectangle width="30" height="40" as="alternateBounds" />
          </mxGeometry>
        </mxCell>
        <mxCell id="8h3b-cIPUra0p9pFavSq-12" value="stock quantity" style="shape=partialRectangle;html=1;whiteSpace=wrap;connectable=0;strokeColor=inherit;overflow=hidden;fillColor=none;top=0;left=0;bottom=0;right=0;pointerEvents=1;" vertex="1" parent="8h3b-cIPUra0p9pFavSq-10">
          <mxGeometry x="30" width="110" height="40" as="geometry">
            <mxRectangle width="110" height="40" as="alternateBounds" />
          </mxGeometry>
        </mxCell>
        <mxCell id="ocFZIZSYFdL7Tnu5M3Te-91" value="book_author" style="shape=table;startSize=20;container=1;collapsible=0;childLayout=tableLayout;fontStyle=1" parent="1" vertex="1">
          <mxGeometry x="-720" y="-900" width="120" height="110" as="geometry" />
        </mxCell>
        <mxCell id="ocFZIZSYFdL7Tnu5M3Te-92" value="" style="shape=tableRow;horizontal=0;startSize=0;swimlaneHead=0;swimlaneBody=0;strokeColor=inherit;top=0;left=0;bottom=0;right=0;collapsible=0;dropTarget=0;fillColor=none;points=[[0,0.5],[1,0.5]];portConstraint=eastwest;" parent="ocFZIZSYFdL7Tnu5M3Te-91" vertex="1">
          <mxGeometry y="20" width="120" height="45" as="geometry" />
        </mxCell>
        <mxCell id="ocFZIZSYFdL7Tnu5M3Te-93" value="&lt;b&gt;PK&lt;/b&gt;" style="shape=partialRectangle;html=1;whiteSpace=wrap;connectable=0;strokeColor=inherit;overflow=hidden;fillColor=none;top=0;left=0;bottom=0;right=0;pointerEvents=1;" parent="ocFZIZSYFdL7Tnu5M3Te-92" vertex="1">
          <mxGeometry width="30" height="45" as="geometry">
            <mxRectangle width="30" height="45" as="alternateBounds" />
          </mxGeometry>
        </mxCell>
        <mxCell id="ocFZIZSYFdL7Tnu5M3Te-94" value="&lt;b&gt;book_id&lt;/b&gt;" style="shape=partialRectangle;html=1;whiteSpace=wrap;connectable=0;strokeColor=inherit;overflow=hidden;fillColor=none;top=0;left=0;bottom=0;right=0;pointerEvents=1;" parent="ocFZIZSYFdL7Tnu5M3Te-92" vertex="1">
          <mxGeometry x="30" width="90" height="45" as="geometry">
            <mxRectangle width="90" height="45" as="alternateBounds" />
          </mxGeometry>
        </mxCell>
        <mxCell id="ocFZIZSYFdL7Tnu5M3Te-95" value="" style="shape=tableRow;horizontal=0;startSize=0;swimlaneHead=0;swimlaneBody=0;strokeColor=inherit;top=0;left=0;bottom=0;right=0;collapsible=0;dropTarget=0;fillColor=none;points=[[0,0.5],[1,0.5]];portConstraint=eastwest;" parent="ocFZIZSYFdL7Tnu5M3Te-91" vertex="1">
          <mxGeometry y="65" width="120" height="45" as="geometry" />
        </mxCell>
        <mxCell id="ocFZIZSYFdL7Tnu5M3Te-96" value="&lt;b&gt;PK&lt;/b&gt;" style="shape=partialRectangle;html=1;whiteSpace=wrap;connectable=0;strokeColor=inherit;overflow=hidden;fillColor=none;top=0;left=0;bottom=0;right=0;pointerEvents=1;" parent="ocFZIZSYFdL7Tnu5M3Te-95" vertex="1">
          <mxGeometry width="30" height="45" as="geometry">
            <mxRectangle width="30" height="45" as="alternateBounds" />
          </mxGeometry>
        </mxCell>
        <mxCell id="ocFZIZSYFdL7Tnu5M3Te-97" value="author_id" style="shape=partialRectangle;html=1;whiteSpace=wrap;connectable=0;strokeColor=inherit;overflow=hidden;fillColor=none;top=0;left=0;bottom=0;right=0;pointerEvents=1;" parent="ocFZIZSYFdL7Tnu5M3Te-95" vertex="1">
          <mxGeometry x="30" width="90" height="45" as="geometry">
            <mxRectangle width="90" height="45" as="alternateBounds" />
          </mxGeometry>
        </mxCell>
        <mxCell id="ocFZIZSYFdL7Tnu5M3Te-98" value="author" style="shape=table;startSize=30;container=1;collapsible=0;childLayout=tableLayout;fontStyle=1" parent="1" vertex="1">
          <mxGeometry x="-545" y="-960" width="120" height="150" as="geometry" />
        </mxCell>
        <mxCell id="ocFZIZSYFdL7Tnu5M3Te-99" value="" style="shape=tableRow;horizontal=0;startSize=0;swimlaneHead=0;swimlaneBody=0;strokeColor=inherit;top=0;left=0;bottom=0;right=0;collapsible=0;dropTarget=0;fillColor=none;points=[[0,0.5],[1,0.5]];portConstraint=eastwest;" parent="ocFZIZSYFdL7Tnu5M3Te-98" vertex="1">
          <mxGeometry y="30" width="120" height="40" as="geometry" />
        </mxCell>
        <mxCell id="ocFZIZSYFdL7Tnu5M3Te-100" value="&lt;b&gt;PK&lt;/b&gt;" style="shape=partialRectangle;html=1;whiteSpace=wrap;connectable=0;strokeColor=inherit;overflow=hidden;fillColor=none;top=0;left=0;bottom=0;right=0;pointerEvents=1;" parent="ocFZIZSYFdL7Tnu5M3Te-99" vertex="1">
          <mxGeometry width="40" height="40" as="geometry">
            <mxRectangle width="40" height="40" as="alternateBounds" />
          </mxGeometry>
        </mxCell>
        <mxCell id="ocFZIZSYFdL7Tnu5M3Te-101" value="&lt;b&gt;author-id&lt;/b&gt;" style="shape=partialRectangle;html=1;whiteSpace=wrap;connectable=0;strokeColor=inherit;overflow=hidden;fillColor=none;top=0;left=0;bottom=0;right=0;pointerEvents=1;" parent="ocFZIZSYFdL7Tnu5M3Te-99" vertex="1">
          <mxGeometry x="40" width="80" height="40" as="geometry">
            <mxRectangle width="80" height="40" as="alternateBounds" />
          </mxGeometry>
        </mxCell>
        <mxCell id="ocFZIZSYFdL7Tnu5M3Te-102" value="" style="shape=tableRow;horizontal=0;startSize=0;swimlaneHead=0;swimlaneBody=0;strokeColor=inherit;top=0;left=0;bottom=0;right=0;collapsible=0;dropTarget=0;fillColor=none;points=[[0,0.5],[1,0.5]];portConstraint=eastwest;" parent="ocFZIZSYFdL7Tnu5M3Te-98" vertex="1">
          <mxGeometry y="70" width="120" height="40" as="geometry" />
        </mxCell>
        <mxCell id="ocFZIZSYFdL7Tnu5M3Te-103" value="" style="shape=partialRectangle;html=1;whiteSpace=wrap;connectable=0;strokeColor=inherit;overflow=hidden;fillColor=none;top=0;left=0;bottom=0;right=0;pointerEvents=1;" parent="ocFZIZSYFdL7Tnu5M3Te-102" vertex="1">
          <mxGeometry width="40" height="40" as="geometry">
            <mxRectangle width="40" height="40" as="alternateBounds" />
          </mxGeometry>
        </mxCell>
        <mxCell id="ocFZIZSYFdL7Tnu5M3Te-104" value="first name" style="shape=partialRectangle;html=1;whiteSpace=wrap;connectable=0;strokeColor=inherit;overflow=hidden;fillColor=none;top=0;left=0;bottom=0;right=0;pointerEvents=1;" parent="ocFZIZSYFdL7Tnu5M3Te-102" vertex="1">
          <mxGeometry x="40" width="80" height="40" as="geometry">
            <mxRectangle width="80" height="40" as="alternateBounds" />
          </mxGeometry>
        </mxCell>
        <mxCell id="8h3b-cIPUra0p9pFavSq-13" style="shape=tableRow;horizontal=0;startSize=0;swimlaneHead=0;swimlaneBody=0;strokeColor=inherit;top=0;left=0;bottom=0;right=0;collapsible=0;dropTarget=0;fillColor=none;points=[[0,0.5],[1,0.5]];portConstraint=eastwest;" vertex="1" parent="ocFZIZSYFdL7Tnu5M3Te-98">
          <mxGeometry y="110" width="120" height="40" as="geometry" />
        </mxCell>
        <mxCell id="8h3b-cIPUra0p9pFavSq-14" style="shape=partialRectangle;html=1;whiteSpace=wrap;connectable=0;strokeColor=inherit;overflow=hidden;fillColor=none;top=0;left=0;bottom=0;right=0;pointerEvents=1;" vertex="1" parent="8h3b-cIPUra0p9pFavSq-13">
          <mxGeometry width="40" height="40" as="geometry">
            <mxRectangle width="40" height="40" as="alternateBounds" />
          </mxGeometry>
        </mxCell>
        <mxCell id="8h3b-cIPUra0p9pFavSq-15" value="last name" style="shape=partialRectangle;html=1;whiteSpace=wrap;connectable=0;strokeColor=inherit;overflow=hidden;fillColor=none;top=0;left=0;bottom=0;right=0;pointerEvents=1;" vertex="1" parent="8h3b-cIPUra0p9pFavSq-13">
          <mxGeometry x="40" width="80" height="40" as="geometry">
            <mxRectangle width="80" height="40" as="alternateBounds" />
          </mxGeometry>
        </mxCell>
        <mxCell id="ocFZIZSYFdL7Tnu5M3Te-105" value="book_language" style="shape=table;startSize=30;container=1;collapsible=0;childLayout=tableLayout;fontStyle=1" parent="1" vertex="1">
          <mxGeometry x="-700" y="-730" width="120" height="110" as="geometry" />
        </mxCell>
        <mxCell id="ocFZIZSYFdL7Tnu5M3Te-106" value="" style="shape=tableRow;horizontal=0;startSize=0;swimlaneHead=0;swimlaneBody=0;strokeColor=inherit;top=0;left=0;bottom=0;right=0;collapsible=0;dropTarget=0;fillColor=none;points=[[0,0.5],[1,0.5]];portConstraint=eastwest;" parent="ocFZIZSYFdL7Tnu5M3Te-105" vertex="1">
          <mxGeometry y="30" width="120" height="40" as="geometry" />
        </mxCell>
        <mxCell id="ocFZIZSYFdL7Tnu5M3Te-107" value="PK" style="shape=partialRectangle;html=1;whiteSpace=wrap;connectable=0;strokeColor=inherit;overflow=hidden;fillColor=none;top=0;left=0;bottom=0;right=0;pointerEvents=1;fontStyle=1" parent="ocFZIZSYFdL7Tnu5M3Te-106" vertex="1">
          <mxGeometry width="30" height="40" as="geometry">
            <mxRectangle width="30" height="40" as="alternateBounds" />
          </mxGeometry>
        </mxCell>
        <mxCell id="ocFZIZSYFdL7Tnu5M3Te-108" value="&lt;b&gt;language_id&lt;/b&gt;" style="shape=partialRectangle;html=1;whiteSpace=wrap;connectable=0;strokeColor=inherit;overflow=hidden;fillColor=none;top=0;left=0;bottom=0;right=0;pointerEvents=1;" parent="ocFZIZSYFdL7Tnu5M3Te-106" vertex="1">
          <mxGeometry x="30" width="90" height="40" as="geometry">
            <mxRectangle width="90" height="40" as="alternateBounds" />
          </mxGeometry>
        </mxCell>
        <mxCell id="ocFZIZSYFdL7Tnu5M3Te-109" value="" style="shape=tableRow;horizontal=0;startSize=0;swimlaneHead=0;swimlaneBody=0;strokeColor=inherit;top=0;left=0;bottom=0;right=0;collapsible=0;dropTarget=0;fillColor=none;points=[[0,0.5],[1,0.5]];portConstraint=eastwest;" parent="ocFZIZSYFdL7Tnu5M3Te-105" vertex="1">
          <mxGeometry y="70" width="120" height="40" as="geometry" />
        </mxCell>
        <mxCell id="ocFZIZSYFdL7Tnu5M3Te-110" value="" style="shape=partialRectangle;html=1;whiteSpace=wrap;connectable=0;strokeColor=inherit;overflow=hidden;fillColor=none;top=0;left=0;bottom=0;right=0;pointerEvents=1;" parent="ocFZIZSYFdL7Tnu5M3Te-109" vertex="1">
          <mxGeometry width="30" height="40" as="geometry">
            <mxRectangle width="30" height="40" as="alternateBounds" />
          </mxGeometry>
        </mxCell>
        <mxCell id="ocFZIZSYFdL7Tnu5M3Te-111" value="language name" style="shape=partialRectangle;html=1;whiteSpace=wrap;connectable=0;strokeColor=inherit;overflow=hidden;fillColor=none;top=0;left=0;bottom=0;right=0;pointerEvents=1;" parent="ocFZIZSYFdL7Tnu5M3Te-109" vertex="1">
          <mxGeometry x="30" width="90" height="40" as="geometry">
            <mxRectangle width="90" height="40" as="alternateBounds" />
          </mxGeometry>
        </mxCell>
        <mxCell id="ocFZIZSYFdL7Tnu5M3Te-112" value="publisher" style="shape=table;startSize=30;container=1;collapsible=0;childLayout=tableLayout;fontStyle=1" parent="1" vertex="1">
          <mxGeometry x="-540" y="-800" width="120" height="150" as="geometry" />
        </mxCell>
        <mxCell id="ocFZIZSYFdL7Tnu5M3Te-113" value="" style="shape=tableRow;horizontal=0;startSize=0;swimlaneHead=0;swimlaneBody=0;strokeColor=inherit;top=0;left=0;bottom=0;right=0;collapsible=0;dropTarget=0;fillColor=none;points=[[0,0.5],[1,0.5]];portConstraint=eastwest;" parent="ocFZIZSYFdL7Tnu5M3Te-112" vertex="1">
          <mxGeometry y="30" width="120" height="40" as="geometry" />
        </mxCell>
        <mxCell id="ocFZIZSYFdL7Tnu5M3Te-114" value="PK" style="shape=partialRectangle;html=1;whiteSpace=wrap;connectable=0;strokeColor=inherit;overflow=hidden;fillColor=none;top=0;left=0;bottom=0;right=0;pointerEvents=1;fontStyle=1" parent="ocFZIZSYFdL7Tnu5M3Te-113" vertex="1">
          <mxGeometry width="40" height="40" as="geometry">
            <mxRectangle width="40" height="40" as="alternateBounds" />
          </mxGeometry>
        </mxCell>
        <mxCell id="ocFZIZSYFdL7Tnu5M3Te-115" value="&lt;b&gt;publisher_id&lt;/b&gt;" style="shape=partialRectangle;html=1;whiteSpace=wrap;connectable=0;strokeColor=inherit;overflow=hidden;fillColor=none;top=0;left=0;bottom=0;right=0;pointerEvents=1;" parent="ocFZIZSYFdL7Tnu5M3Te-113" vertex="1">
          <mxGeometry x="40" width="80" height="40" as="geometry">
            <mxRectangle width="80" height="40" as="alternateBounds" />
          </mxGeometry>
        </mxCell>
        <mxCell id="ocFZIZSYFdL7Tnu5M3Te-116" value="" style="shape=tableRow;horizontal=0;startSize=0;swimlaneHead=0;swimlaneBody=0;strokeColor=inherit;top=0;left=0;bottom=0;right=0;collapsible=0;dropTarget=0;fillColor=none;points=[[0,0.5],[1,0.5]];portConstraint=eastwest;" parent="ocFZIZSYFdL7Tnu5M3Te-112" vertex="1">
          <mxGeometry y="70" width="120" height="40" as="geometry" />
        </mxCell>
        <mxCell id="ocFZIZSYFdL7Tnu5M3Te-117" value="" style="shape=partialRectangle;html=1;whiteSpace=wrap;connectable=0;strokeColor=inherit;overflow=hidden;fillColor=none;top=0;left=0;bottom=0;right=0;pointerEvents=1;" parent="ocFZIZSYFdL7Tnu5M3Te-116" vertex="1">
          <mxGeometry width="40" height="40" as="geometry">
            <mxRectangle width="40" height="40" as="alternateBounds" />
          </mxGeometry>
        </mxCell>
        <mxCell id="ocFZIZSYFdL7Tnu5M3Te-118" value="name" style="shape=partialRectangle;html=1;whiteSpace=wrap;connectable=0;strokeColor=inherit;overflow=hidden;fillColor=none;top=0;left=0;bottom=0;right=0;pointerEvents=1;" parent="ocFZIZSYFdL7Tnu5M3Te-116" vertex="1">
          <mxGeometry x="40" width="80" height="40" as="geometry">
            <mxRectangle width="80" height="40" as="alternateBounds" />
          </mxGeometry>
        </mxCell>
        <mxCell id="8h3b-cIPUra0p9pFavSq-40" style="shape=tableRow;horizontal=0;startSize=0;swimlaneHead=0;swimlaneBody=0;strokeColor=inherit;top=0;left=0;bottom=0;right=0;collapsible=0;dropTarget=0;fillColor=none;points=[[0,0.5],[1,0.5]];portConstraint=eastwest;" vertex="1" parent="ocFZIZSYFdL7Tnu5M3Te-112">
          <mxGeometry y="110" width="120" height="40" as="geometry" />
        </mxCell>
        <mxCell id="8h3b-cIPUra0p9pFavSq-41" style="shape=partialRectangle;html=1;whiteSpace=wrap;connectable=0;strokeColor=inherit;overflow=hidden;fillColor=none;top=0;left=0;bottom=0;right=0;pointerEvents=1;" vertex="1" parent="8h3b-cIPUra0p9pFavSq-40">
          <mxGeometry width="40" height="40" as="geometry">
            <mxRectangle width="40" height="40" as="alternateBounds" />
          </mxGeometry>
        </mxCell>
        <mxCell id="8h3b-cIPUra0p9pFavSq-42" value="country id" style="shape=partialRectangle;html=1;whiteSpace=wrap;connectable=0;strokeColor=inherit;overflow=hidden;fillColor=none;top=0;left=0;bottom=0;right=0;pointerEvents=1;" vertex="1" parent="8h3b-cIPUra0p9pFavSq-40">
          <mxGeometry x="40" width="80" height="40" as="geometry">
            <mxRectangle width="80" height="40" as="alternateBounds" />
          </mxGeometry>
        </mxCell>
        <mxCell id="ocFZIZSYFdL7Tnu5M3Te-119" value="customer_address" style="shape=table;startSize=30;container=1;collapsible=0;childLayout=tableLayout;fontStyle=1" parent="1" vertex="1">
          <mxGeometry x="-890" y="-540" width="130" height="130" as="geometry" />
        </mxCell>
        <mxCell id="ocFZIZSYFdL7Tnu5M3Te-120" value="" style="shape=tableRow;horizontal=0;startSize=0;swimlaneHead=0;swimlaneBody=0;strokeColor=inherit;top=0;left=0;bottom=0;right=0;collapsible=0;dropTarget=0;fillColor=none;points=[[0,0.5],[1,0.5]];portConstraint=eastwest;" parent="ocFZIZSYFdL7Tnu5M3Te-119" vertex="1">
          <mxGeometry y="30" width="130" height="30" as="geometry" />
        </mxCell>
        <mxCell id="ocFZIZSYFdL7Tnu5M3Te-121" value="&lt;b&gt;PK&lt;/b&gt;" style="shape=partialRectangle;html=1;whiteSpace=wrap;connectable=0;strokeColor=inherit;overflow=hidden;fillColor=none;top=0;left=0;bottom=0;right=0;pointerEvents=1;" parent="ocFZIZSYFdL7Tnu5M3Te-120" vertex="1">
          <mxGeometry width="30" height="30" as="geometry">
            <mxRectangle width="30" height="30" as="alternateBounds" />
          </mxGeometry>
        </mxCell>
        <mxCell id="ocFZIZSYFdL7Tnu5M3Te-122" value="&lt;b&gt;customer_id&lt;/b&gt;" style="shape=partialRectangle;html=1;whiteSpace=wrap;connectable=0;strokeColor=inherit;overflow=hidden;fillColor=none;top=0;left=0;bottom=0;right=0;pointerEvents=1;" parent="ocFZIZSYFdL7Tnu5M3Te-120" vertex="1">
          <mxGeometry x="30" width="100" height="30" as="geometry">
            <mxRectangle width="100" height="30" as="alternateBounds" />
          </mxGeometry>
        </mxCell>
        <mxCell id="ocFZIZSYFdL7Tnu5M3Te-123" value="" style="shape=tableRow;horizontal=0;startSize=0;swimlaneHead=0;swimlaneBody=0;strokeColor=inherit;top=0;left=0;bottom=0;right=0;collapsible=0;dropTarget=0;fillColor=none;points=[[0,0.5],[1,0.5]];portConstraint=eastwest;" parent="ocFZIZSYFdL7Tnu5M3Te-119" vertex="1">
          <mxGeometry y="60" width="130" height="30" as="geometry" />
        </mxCell>
        <mxCell id="ocFZIZSYFdL7Tnu5M3Te-124" value="" style="shape=partialRectangle;html=1;whiteSpace=wrap;connectable=0;strokeColor=inherit;overflow=hidden;fillColor=none;top=0;left=0;bottom=0;right=0;pointerEvents=1;" parent="ocFZIZSYFdL7Tnu5M3Te-123" vertex="1">
          <mxGeometry width="30" height="30" as="geometry">
            <mxRectangle width="30" height="30" as="alternateBounds" />
          </mxGeometry>
        </mxCell>
        <mxCell id="ocFZIZSYFdL7Tnu5M3Te-125" value="adress_id" style="shape=partialRectangle;html=1;whiteSpace=wrap;connectable=0;strokeColor=inherit;overflow=hidden;fillColor=none;top=0;left=0;bottom=0;right=0;pointerEvents=1;" parent="ocFZIZSYFdL7Tnu5M3Te-123" vertex="1">
          <mxGeometry x="30" width="100" height="30" as="geometry">
            <mxRectangle width="100" height="30" as="alternateBounds" />
          </mxGeometry>
        </mxCell>
        <mxCell id="ocFZIZSYFdL7Tnu5M3Te-126" value="" style="shape=tableRow;horizontal=0;startSize=0;swimlaneHead=0;swimlaneBody=0;strokeColor=inherit;top=0;left=0;bottom=0;right=0;collapsible=0;dropTarget=0;fillColor=none;points=[[0,0.5],[1,0.5]];portConstraint=eastwest;" parent="ocFZIZSYFdL7Tnu5M3Te-119" vertex="1">
          <mxGeometry y="90" width="130" height="40" as="geometry" />
        </mxCell>
        <mxCell id="ocFZIZSYFdL7Tnu5M3Te-127" value="" style="shape=partialRectangle;html=1;whiteSpace=wrap;connectable=0;strokeColor=inherit;overflow=hidden;fillColor=none;top=0;left=0;bottom=0;right=0;pointerEvents=1;" parent="ocFZIZSYFdL7Tnu5M3Te-126" vertex="1">
          <mxGeometry width="30" height="40" as="geometry">
            <mxRectangle width="30" height="40" as="alternateBounds" />
          </mxGeometry>
        </mxCell>
        <mxCell id="ocFZIZSYFdL7Tnu5M3Te-128" value="adress_status_id" style="shape=partialRectangle;html=1;whiteSpace=wrap;connectable=0;strokeColor=inherit;overflow=hidden;fillColor=none;top=0;left=0;bottom=0;right=0;pointerEvents=1;" parent="ocFZIZSYFdL7Tnu5M3Te-126" vertex="1">
          <mxGeometry x="30" width="100" height="40" as="geometry">
            <mxRectangle width="100" height="40" as="alternateBounds" />
          </mxGeometry>
        </mxCell>
        <mxCell id="ocFZIZSYFdL7Tnu5M3Te-129" value="address_status" style="shape=table;startSize=30;container=1;collapsible=0;childLayout=tableLayout;fontStyle=1" parent="1" vertex="1">
          <mxGeometry x="-700" y="-370" width="105" height="100" as="geometry" />
        </mxCell>
        <mxCell id="ocFZIZSYFdL7Tnu5M3Te-130" value="" style="shape=tableRow;horizontal=0;startSize=0;swimlaneHead=0;swimlaneBody=0;strokeColor=inherit;top=0;left=0;bottom=0;right=0;collapsible=0;dropTarget=0;fillColor=none;points=[[0,0.5],[1,0.5]];portConstraint=eastwest;" parent="ocFZIZSYFdL7Tnu5M3Te-129" vertex="1">
          <mxGeometry y="30" width="105" height="30" as="geometry" />
        </mxCell>
        <mxCell id="ocFZIZSYFdL7Tnu5M3Te-131" value="&lt;b&gt;PK&lt;/b&gt;" style="shape=partialRectangle;html=1;whiteSpace=wrap;connectable=0;strokeColor=inherit;overflow=hidden;fillColor=none;top=0;left=0;bottom=0;right=0;pointerEvents=1;" parent="ocFZIZSYFdL7Tnu5M3Te-130" vertex="1">
          <mxGeometry width="25" height="30" as="geometry">
            <mxRectangle width="25" height="30" as="alternateBounds" />
          </mxGeometry>
        </mxCell>
        <mxCell id="ocFZIZSYFdL7Tnu5M3Te-132" value="&lt;b&gt;status_id&lt;/b&gt;" style="shape=partialRectangle;html=1;whiteSpace=wrap;connectable=0;strokeColor=inherit;overflow=hidden;fillColor=none;top=0;left=0;bottom=0;right=0;pointerEvents=1;" parent="ocFZIZSYFdL7Tnu5M3Te-130" vertex="1">
          <mxGeometry x="25" width="80" height="30" as="geometry">
            <mxRectangle width="80" height="30" as="alternateBounds" />
          </mxGeometry>
        </mxCell>
        <mxCell id="ocFZIZSYFdL7Tnu5M3Te-133" value="" style="shape=tableRow;horizontal=0;startSize=0;swimlaneHead=0;swimlaneBody=0;strokeColor=inherit;top=0;left=0;bottom=0;right=0;collapsible=0;dropTarget=0;fillColor=none;points=[[0,0.5],[1,0.5]];portConstraint=eastwest;" parent="ocFZIZSYFdL7Tnu5M3Te-129" vertex="1">
          <mxGeometry y="60" width="105" height="40" as="geometry" />
        </mxCell>
        <mxCell id="ocFZIZSYFdL7Tnu5M3Te-134" value="" style="shape=partialRectangle;html=1;whiteSpace=wrap;connectable=0;strokeColor=inherit;overflow=hidden;fillColor=none;top=0;left=0;bottom=0;right=0;pointerEvents=1;" parent="ocFZIZSYFdL7Tnu5M3Te-133" vertex="1">
          <mxGeometry width="25" height="40" as="geometry">
            <mxRectangle width="25" height="40" as="alternateBounds" />
          </mxGeometry>
        </mxCell>
        <mxCell id="ocFZIZSYFdL7Tnu5M3Te-135" value="status_name" style="shape=partialRectangle;html=1;whiteSpace=wrap;connectable=0;strokeColor=inherit;overflow=hidden;fillColor=none;top=0;left=0;bottom=0;right=0;pointerEvents=1;" parent="ocFZIZSYFdL7Tnu5M3Te-133" vertex="1">
          <mxGeometry x="25" width="80" height="40" as="geometry">
            <mxRectangle width="80" height="40" as="alternateBounds" />
          </mxGeometry>
        </mxCell>
        <mxCell id="ocFZIZSYFdL7Tnu5M3Te-136" value="address" style="shape=table;startSize=30;container=1;collapsible=0;childLayout=tableLayout;fontStyle=1" parent="1" vertex="1">
          <mxGeometry x="-700" y="-611" width="120" height="230" as="geometry" />
        </mxCell>
        <mxCell id="ocFZIZSYFdL7Tnu5M3Te-137" value="" style="shape=tableRow;horizontal=0;startSize=0;swimlaneHead=0;swimlaneBody=0;strokeColor=inherit;top=0;left=0;bottom=0;right=0;collapsible=0;dropTarget=0;fillColor=none;points=[[0,0.5],[1,0.5]];portConstraint=eastwest;" parent="ocFZIZSYFdL7Tnu5M3Te-136" vertex="1">
          <mxGeometry y="30" width="120" height="40" as="geometry" />
        </mxCell>
        <mxCell id="ocFZIZSYFdL7Tnu5M3Te-138" value="&lt;b&gt;PK&lt;/b&gt;" style="shape=partialRectangle;html=1;whiteSpace=wrap;connectable=0;strokeColor=inherit;overflow=hidden;fillColor=none;top=0;left=0;bottom=0;right=0;pointerEvents=1;" parent="ocFZIZSYFdL7Tnu5M3Te-137" vertex="1">
          <mxGeometry width="20" height="40" as="geometry">
            <mxRectangle width="20" height="40" as="alternateBounds" />
          </mxGeometry>
        </mxCell>
        <mxCell id="ocFZIZSYFdL7Tnu5M3Te-139" value="&lt;b&gt;address_id&lt;/b&gt;" style="shape=partialRectangle;html=1;whiteSpace=wrap;connectable=0;strokeColor=inherit;overflow=hidden;fillColor=none;top=0;left=0;bottom=0;right=0;pointerEvents=1;" parent="ocFZIZSYFdL7Tnu5M3Te-137" vertex="1">
          <mxGeometry x="20" width="100" height="40" as="geometry">
            <mxRectangle width="100" height="40" as="alternateBounds" />
          </mxGeometry>
        </mxCell>
        <mxCell id="ocFZIZSYFdL7Tnu5M3Te-140" value="" style="shape=tableRow;horizontal=0;startSize=0;swimlaneHead=0;swimlaneBody=0;strokeColor=inherit;top=0;left=0;bottom=0;right=0;collapsible=0;dropTarget=0;fillColor=none;points=[[0,0.5],[1,0.5]];portConstraint=eastwest;" parent="ocFZIZSYFdL7Tnu5M3Te-136" vertex="1">
          <mxGeometry y="70" width="120" height="40" as="geometry" />
        </mxCell>
        <mxCell id="ocFZIZSYFdL7Tnu5M3Te-141" value="" style="shape=partialRectangle;html=1;whiteSpace=wrap;connectable=0;strokeColor=inherit;overflow=hidden;fillColor=none;top=0;left=0;bottom=0;right=0;pointerEvents=1;" parent="ocFZIZSYFdL7Tnu5M3Te-140" vertex="1">
          <mxGeometry width="20" height="40" as="geometry">
            <mxRectangle width="20" height="40" as="alternateBounds" />
          </mxGeometry>
        </mxCell>
        <mxCell id="ocFZIZSYFdL7Tnu5M3Te-142" value="street" style="shape=partialRectangle;html=1;whiteSpace=wrap;connectable=0;strokeColor=inherit;overflow=hidden;fillColor=none;top=0;left=0;bottom=0;right=0;pointerEvents=1;" parent="ocFZIZSYFdL7Tnu5M3Te-140" vertex="1">
          <mxGeometry x="20" width="100" height="40" as="geometry">
            <mxRectangle width="100" height="40" as="alternateBounds" />
          </mxGeometry>
        </mxCell>
        <mxCell id="ocFZIZSYFdL7Tnu5M3Te-143" value="" style="shape=tableRow;horizontal=0;startSize=0;swimlaneHead=0;swimlaneBody=0;strokeColor=inherit;top=0;left=0;bottom=0;right=0;collapsible=0;dropTarget=0;fillColor=none;points=[[0,0.5],[1,0.5]];portConstraint=eastwest;" parent="ocFZIZSYFdL7Tnu5M3Te-136" vertex="1">
          <mxGeometry y="110" width="120" height="40" as="geometry" />
        </mxCell>
        <mxCell id="ocFZIZSYFdL7Tnu5M3Te-144" value="" style="shape=partialRectangle;html=1;whiteSpace=wrap;connectable=0;strokeColor=inherit;overflow=hidden;fillColor=none;top=0;left=0;bottom=0;right=0;pointerEvents=1;" parent="ocFZIZSYFdL7Tnu5M3Te-143" vertex="1">
          <mxGeometry width="20" height="40" as="geometry">
            <mxRectangle width="20" height="40" as="alternateBounds" />
          </mxGeometry>
        </mxCell>
        <mxCell id="ocFZIZSYFdL7Tnu5M3Te-145" value="city" style="shape=partialRectangle;html=1;whiteSpace=wrap;connectable=0;strokeColor=inherit;overflow=hidden;fillColor=none;top=0;left=0;bottom=0;right=0;pointerEvents=1;" parent="ocFZIZSYFdL7Tnu5M3Te-143" vertex="1">
          <mxGeometry x="20" width="100" height="40" as="geometry">
            <mxRectangle width="100" height="40" as="alternateBounds" />
          </mxGeometry>
        </mxCell>
        <mxCell id="ocFZIZSYFdL7Tnu5M3Te-146" value="" style="shape=tableRow;horizontal=0;startSize=0;swimlaneHead=0;swimlaneBody=0;strokeColor=inherit;top=0;left=0;bottom=0;right=0;collapsible=0;dropTarget=0;fillColor=none;points=[[0,0.5],[1,0.5]];portConstraint=eastwest;" parent="ocFZIZSYFdL7Tnu5M3Te-136" vertex="1">
          <mxGeometry y="150" width="120" height="40" as="geometry" />
        </mxCell>
        <mxCell id="ocFZIZSYFdL7Tnu5M3Te-147" value="" style="shape=partialRectangle;html=1;whiteSpace=wrap;connectable=0;strokeColor=inherit;overflow=hidden;fillColor=none;top=0;left=0;bottom=0;right=0;pointerEvents=1;" parent="ocFZIZSYFdL7Tnu5M3Te-146" vertex="1">
          <mxGeometry width="20" height="40" as="geometry">
            <mxRectangle width="20" height="40" as="alternateBounds" />
          </mxGeometry>
        </mxCell>
        <mxCell id="ocFZIZSYFdL7Tnu5M3Te-148" value="country_id" style="shape=partialRectangle;html=1;whiteSpace=wrap;connectable=0;strokeColor=inherit;overflow=hidden;fillColor=none;top=0;left=0;bottom=0;right=0;pointerEvents=1;" parent="ocFZIZSYFdL7Tnu5M3Te-146" vertex="1">
          <mxGeometry x="20" width="100" height="40" as="geometry">
            <mxRectangle width="100" height="40" as="alternateBounds" />
          </mxGeometry>
        </mxCell>
        <mxCell id="8h3b-cIPUra0p9pFavSq-28" style="shape=tableRow;horizontal=0;startSize=0;swimlaneHead=0;swimlaneBody=0;strokeColor=inherit;top=0;left=0;bottom=0;right=0;collapsible=0;dropTarget=0;fillColor=none;points=[[0,0.5],[1,0.5]];portConstraint=eastwest;" vertex="1" parent="ocFZIZSYFdL7Tnu5M3Te-136">
          <mxGeometry y="190" width="120" height="40" as="geometry" />
        </mxCell>
        <mxCell id="8h3b-cIPUra0p9pFavSq-29" style="shape=partialRectangle;html=1;whiteSpace=wrap;connectable=0;strokeColor=inherit;overflow=hidden;fillColor=none;top=0;left=0;bottom=0;right=0;pointerEvents=1;" vertex="1" parent="8h3b-cIPUra0p9pFavSq-28">
          <mxGeometry width="20" height="40" as="geometry">
            <mxRectangle width="20" height="40" as="alternateBounds" />
          </mxGeometry>
        </mxCell>
        <mxCell id="8h3b-cIPUra0p9pFavSq-30" value="postal code" style="shape=partialRectangle;html=1;whiteSpace=wrap;connectable=0;strokeColor=inherit;overflow=hidden;fillColor=none;top=0;left=0;bottom=0;right=0;pointerEvents=1;" vertex="1" parent="8h3b-cIPUra0p9pFavSq-28">
          <mxGeometry x="20" width="100" height="40" as="geometry">
            <mxRectangle width="100" height="40" as="alternateBounds" />
          </mxGeometry>
        </mxCell>
        <mxCell id="ocFZIZSYFdL7Tnu5M3Te-149" value="country " style="shape=table;startSize=30;container=1;collapsible=0;childLayout=tableLayout;fontStyle=1" parent="1" vertex="1">
          <mxGeometry x="-520" y="-430" width="120" height="110" as="geometry" />
        </mxCell>
        <mxCell id="ocFZIZSYFdL7Tnu5M3Te-150" value="" style="shape=tableRow;horizontal=0;startSize=0;swimlaneHead=0;swimlaneBody=0;strokeColor=inherit;top=0;left=0;bottom=0;right=0;collapsible=0;dropTarget=0;fillColor=none;points=[[0,0.5],[1,0.5]];portConstraint=eastwest;fontStyle=1" parent="ocFZIZSYFdL7Tnu5M3Te-149" vertex="1">
          <mxGeometry y="30" width="120" height="40" as="geometry" />
        </mxCell>
        <mxCell id="ocFZIZSYFdL7Tnu5M3Te-151" value="&lt;b&gt;PK&lt;/b&gt;" style="shape=partialRectangle;html=1;whiteSpace=wrap;connectable=0;strokeColor=inherit;overflow=hidden;fillColor=none;top=0;left=0;bottom=0;right=0;pointerEvents=1;" parent="ocFZIZSYFdL7Tnu5M3Te-150" vertex="1">
          <mxGeometry width="30" height="40" as="geometry">
            <mxRectangle width="30" height="40" as="alternateBounds" />
          </mxGeometry>
        </mxCell>
        <mxCell id="ocFZIZSYFdL7Tnu5M3Te-152" value="&lt;b&gt;country_id&lt;/b&gt;" style="shape=partialRectangle;html=1;whiteSpace=wrap;connectable=0;strokeColor=inherit;overflow=hidden;fillColor=none;top=0;left=0;bottom=0;right=0;pointerEvents=1;" parent="ocFZIZSYFdL7Tnu5M3Te-150" vertex="1">
          <mxGeometry x="30" width="90" height="40" as="geometry">
            <mxRectangle width="90" height="40" as="alternateBounds" />
          </mxGeometry>
        </mxCell>
        <mxCell id="ocFZIZSYFdL7Tnu5M3Te-153" value="" style="shape=tableRow;horizontal=0;startSize=0;swimlaneHead=0;swimlaneBody=0;strokeColor=inherit;top=0;left=0;bottom=0;right=0;collapsible=0;dropTarget=0;fillColor=none;points=[[0,0.5],[1,0.5]];portConstraint=eastwest;" parent="ocFZIZSYFdL7Tnu5M3Te-149" vertex="1">
          <mxGeometry y="70" width="120" height="40" as="geometry" />
        </mxCell>
        <mxCell id="ocFZIZSYFdL7Tnu5M3Te-154" value="" style="shape=partialRectangle;html=1;whiteSpace=wrap;connectable=0;strokeColor=inherit;overflow=hidden;fillColor=none;top=0;left=0;bottom=0;right=0;pointerEvents=1;" parent="ocFZIZSYFdL7Tnu5M3Te-153" vertex="1">
          <mxGeometry width="30" height="40" as="geometry">
            <mxRectangle width="30" height="40" as="alternateBounds" />
          </mxGeometry>
        </mxCell>
        <mxCell id="ocFZIZSYFdL7Tnu5M3Te-155" value="country_name" style="shape=partialRectangle;html=1;whiteSpace=wrap;connectable=0;strokeColor=inherit;overflow=hidden;fillColor=none;top=0;left=0;bottom=0;right=0;pointerEvents=1;" parent="ocFZIZSYFdL7Tnu5M3Te-153" vertex="1">
          <mxGeometry x="30" width="90" height="40" as="geometry">
            <mxRectangle width="90" height="40" as="alternateBounds" />
          </mxGeometry>
        </mxCell>
        <mxCell id="ocFZIZSYFdL7Tnu5M3Te-156" value="cust_order" style="shape=table;startSize=30;container=1;collapsible=0;childLayout=tableLayout;fontStyle=1" parent="1" vertex="1">
          <mxGeometry x="-1290" y="-770" width="140" height="220" as="geometry" />
        </mxCell>
        <mxCell id="ocFZIZSYFdL7Tnu5M3Te-157" value="" style="shape=tableRow;horizontal=0;startSize=0;swimlaneHead=0;swimlaneBody=0;strokeColor=inherit;top=0;left=0;bottom=0;right=0;collapsible=0;dropTarget=0;fillColor=none;points=[[0,0.5],[1,0.5]];portConstraint=eastwest;" parent="ocFZIZSYFdL7Tnu5M3Te-156" vertex="1">
          <mxGeometry y="30" width="140" height="30" as="geometry" />
        </mxCell>
        <mxCell id="ocFZIZSYFdL7Tnu5M3Te-158" value="&lt;b&gt;PK&lt;/b&gt;" style="shape=partialRectangle;html=1;whiteSpace=wrap;connectable=0;strokeColor=inherit;overflow=hidden;fillColor=none;top=0;left=0;bottom=0;right=0;pointerEvents=1;" parent="ocFZIZSYFdL7Tnu5M3Te-157" vertex="1">
          <mxGeometry width="30" height="30" as="geometry">
            <mxRectangle width="30" height="30" as="alternateBounds" />
          </mxGeometry>
        </mxCell>
        <mxCell id="ocFZIZSYFdL7Tnu5M3Te-159" value="&lt;b&gt;order_id&lt;/b&gt;" style="shape=partialRectangle;html=1;whiteSpace=wrap;connectable=0;strokeColor=inherit;overflow=hidden;fillColor=none;top=0;left=0;bottom=0;right=0;pointerEvents=1;" parent="ocFZIZSYFdL7Tnu5M3Te-157" vertex="1">
          <mxGeometry x="30" width="110" height="30" as="geometry">
            <mxRectangle width="110" height="30" as="alternateBounds" />
          </mxGeometry>
        </mxCell>
        <mxCell id="ocFZIZSYFdL7Tnu5M3Te-160" value="" style="shape=tableRow;horizontal=0;startSize=0;swimlaneHead=0;swimlaneBody=0;strokeColor=inherit;top=0;left=0;bottom=0;right=0;collapsible=0;dropTarget=0;fillColor=none;points=[[0,0.5],[1,0.5]];portConstraint=eastwest;" parent="ocFZIZSYFdL7Tnu5M3Te-156" vertex="1">
          <mxGeometry y="60" width="140" height="40" as="geometry" />
        </mxCell>
        <mxCell id="ocFZIZSYFdL7Tnu5M3Te-161" value="" style="shape=partialRectangle;html=1;whiteSpace=wrap;connectable=0;strokeColor=inherit;overflow=hidden;fillColor=none;top=0;left=0;bottom=0;right=0;pointerEvents=1;" parent="ocFZIZSYFdL7Tnu5M3Te-160" vertex="1">
          <mxGeometry width="30" height="40" as="geometry">
            <mxRectangle width="30" height="40" as="alternateBounds" />
          </mxGeometry>
        </mxCell>
        <mxCell id="ocFZIZSYFdL7Tnu5M3Te-162" value="customer_id" style="shape=partialRectangle;html=1;whiteSpace=wrap;connectable=0;strokeColor=inherit;overflow=hidden;fillColor=none;top=0;left=0;bottom=0;right=0;pointerEvents=1;" parent="ocFZIZSYFdL7Tnu5M3Te-160" vertex="1">
          <mxGeometry x="30" width="110" height="40" as="geometry">
            <mxRectangle width="110" height="40" as="alternateBounds" />
          </mxGeometry>
        </mxCell>
        <mxCell id="ocFZIZSYFdL7Tnu5M3Te-163" value="" style="shape=tableRow;horizontal=0;startSize=0;swimlaneHead=0;swimlaneBody=0;strokeColor=inherit;top=0;left=0;bottom=0;right=0;collapsible=0;dropTarget=0;fillColor=none;points=[[0,0.5],[1,0.5]];portConstraint=eastwest;" parent="ocFZIZSYFdL7Tnu5M3Te-156" vertex="1">
          <mxGeometry y="100" width="140" height="40" as="geometry" />
        </mxCell>
        <mxCell id="ocFZIZSYFdL7Tnu5M3Te-164" value="" style="shape=partialRectangle;html=1;whiteSpace=wrap;connectable=0;strokeColor=inherit;overflow=hidden;fillColor=none;top=0;left=0;bottom=0;right=0;pointerEvents=1;" parent="ocFZIZSYFdL7Tnu5M3Te-163" vertex="1">
          <mxGeometry width="30" height="40" as="geometry">
            <mxRectangle width="30" height="40" as="alternateBounds" />
          </mxGeometry>
        </mxCell>
        <mxCell id="ocFZIZSYFdL7Tnu5M3Te-165" value="order_date" style="shape=partialRectangle;html=1;whiteSpace=wrap;connectable=0;strokeColor=inherit;overflow=hidden;fillColor=none;top=0;left=0;bottom=0;right=0;pointerEvents=1;" parent="ocFZIZSYFdL7Tnu5M3Te-163" vertex="1">
          <mxGeometry x="30" width="110" height="40" as="geometry">
            <mxRectangle width="110" height="40" as="alternateBounds" />
          </mxGeometry>
        </mxCell>
        <mxCell id="ocFZIZSYFdL7Tnu5M3Te-166" value="" style="shape=tableRow;horizontal=0;startSize=0;swimlaneHead=0;swimlaneBody=0;strokeColor=inherit;top=0;left=0;bottom=0;right=0;collapsible=0;dropTarget=0;fillColor=none;points=[[0,0.5],[1,0.5]];portConstraint=eastwest;" parent="ocFZIZSYFdL7Tnu5M3Te-156" vertex="1">
          <mxGeometry y="140" width="140" height="40" as="geometry" />
        </mxCell>
        <mxCell id="ocFZIZSYFdL7Tnu5M3Te-167" value="" style="shape=partialRectangle;html=1;whiteSpace=wrap;connectable=0;strokeColor=inherit;overflow=hidden;fillColor=none;top=0;left=0;bottom=0;right=0;pointerEvents=1;" parent="ocFZIZSYFdL7Tnu5M3Te-166" vertex="1">
          <mxGeometry width="30" height="40" as="geometry">
            <mxRectangle width="30" height="40" as="alternateBounds" />
          </mxGeometry>
        </mxCell>
        <mxCell id="ocFZIZSYFdL7Tnu5M3Te-168" value="shipping _method_id" style="shape=partialRectangle;html=1;whiteSpace=wrap;connectable=0;strokeColor=inherit;overflow=hidden;fillColor=none;top=0;left=0;bottom=0;right=0;pointerEvents=1;" parent="ocFZIZSYFdL7Tnu5M3Te-166" vertex="1">
          <mxGeometry x="30" width="110" height="40" as="geometry">
            <mxRectangle width="110" height="40" as="alternateBounds" />
          </mxGeometry>
        </mxCell>
        <mxCell id="8h3b-cIPUra0p9pFavSq-25" style="shape=tableRow;horizontal=0;startSize=0;swimlaneHead=0;swimlaneBody=0;strokeColor=inherit;top=0;left=0;bottom=0;right=0;collapsible=0;dropTarget=0;fillColor=none;points=[[0,0.5],[1,0.5]];portConstraint=eastwest;" vertex="1" parent="ocFZIZSYFdL7Tnu5M3Te-156">
          <mxGeometry y="180" width="140" height="40" as="geometry" />
        </mxCell>
        <mxCell id="8h3b-cIPUra0p9pFavSq-26" style="shape=partialRectangle;html=1;whiteSpace=wrap;connectable=0;strokeColor=inherit;overflow=hidden;fillColor=none;top=0;left=0;bottom=0;right=0;pointerEvents=1;" vertex="1" parent="8h3b-cIPUra0p9pFavSq-25">
          <mxGeometry width="30" height="40" as="geometry">
            <mxRectangle width="30" height="40" as="alternateBounds" />
          </mxGeometry>
        </mxCell>
        <mxCell id="8h3b-cIPUra0p9pFavSq-27" value="status id" style="shape=partialRectangle;html=1;whiteSpace=wrap;connectable=0;strokeColor=inherit;overflow=hidden;fillColor=none;top=0;left=0;bottom=0;right=0;pointerEvents=1;" vertex="1" parent="8h3b-cIPUra0p9pFavSq-25">
          <mxGeometry x="30" width="110" height="40" as="geometry">
            <mxRectangle width="110" height="40" as="alternateBounds" />
          </mxGeometry>
        </mxCell>
        <mxCell id="ocFZIZSYFdL7Tnu5M3Te-169" value="order_line" style="shape=table;startSize=40;container=1;collapsible=0;childLayout=tableLayout;fontStyle=1" parent="1" vertex="1">
          <mxGeometry x="-1090" y="-977" width="110" height="227" as="geometry" />
        </mxCell>
        <mxCell id="ocFZIZSYFdL7Tnu5M3Te-170" value="" style="shape=tableRow;horizontal=0;startSize=0;swimlaneHead=0;swimlaneBody=0;strokeColor=inherit;top=0;left=0;bottom=0;right=0;collapsible=0;dropTarget=0;fillColor=none;points=[[0,0.5],[1,0.5]];portConstraint=eastwest;" parent="ocFZIZSYFdL7Tnu5M3Te-169" vertex="1">
          <mxGeometry y="40" width="110" height="38" as="geometry" />
        </mxCell>
        <mxCell id="ocFZIZSYFdL7Tnu5M3Te-171" value="&lt;b&gt;PK&lt;/b&gt;" style="shape=partialRectangle;html=1;whiteSpace=wrap;connectable=0;strokeColor=inherit;overflow=hidden;fillColor=none;top=0;left=0;bottom=0;right=0;pointerEvents=1;" parent="ocFZIZSYFdL7Tnu5M3Te-170" vertex="1">
          <mxGeometry width="37" height="38" as="geometry">
            <mxRectangle width="37" height="38" as="alternateBounds" />
          </mxGeometry>
        </mxCell>
        <mxCell id="ocFZIZSYFdL7Tnu5M3Te-172" value="&lt;b&gt;line_id&lt;/b&gt;" style="shape=partialRectangle;html=1;whiteSpace=wrap;connectable=0;strokeColor=inherit;overflow=hidden;fillColor=none;top=0;left=0;bottom=0;right=0;pointerEvents=1;" parent="ocFZIZSYFdL7Tnu5M3Te-170" vertex="1">
          <mxGeometry x="37" width="73" height="38" as="geometry">
            <mxRectangle width="73" height="38" as="alternateBounds" />
          </mxGeometry>
        </mxCell>
        <mxCell id="ocFZIZSYFdL7Tnu5M3Te-173" value="" style="shape=tableRow;horizontal=0;startSize=0;swimlaneHead=0;swimlaneBody=0;strokeColor=inherit;top=0;left=0;bottom=0;right=0;collapsible=0;dropTarget=0;fillColor=none;points=[[0,0.5],[1,0.5]];portConstraint=eastwest;" parent="ocFZIZSYFdL7Tnu5M3Te-169" vertex="1">
          <mxGeometry y="78" width="110" height="37" as="geometry" />
        </mxCell>
        <mxCell id="ocFZIZSYFdL7Tnu5M3Te-174" value="" style="shape=partialRectangle;html=1;whiteSpace=wrap;connectable=0;strokeColor=inherit;overflow=hidden;fillColor=none;top=0;left=0;bottom=0;right=0;pointerEvents=1;" parent="ocFZIZSYFdL7Tnu5M3Te-173" vertex="1">
          <mxGeometry width="37" height="37" as="geometry">
            <mxRectangle width="37" height="37" as="alternateBounds" />
          </mxGeometry>
        </mxCell>
        <mxCell id="ocFZIZSYFdL7Tnu5M3Te-175" value="order_id" style="shape=partialRectangle;html=1;whiteSpace=wrap;connectable=0;strokeColor=inherit;overflow=hidden;fillColor=none;top=0;left=0;bottom=0;right=0;pointerEvents=1;" parent="ocFZIZSYFdL7Tnu5M3Te-173" vertex="1">
          <mxGeometry x="37" width="73" height="37" as="geometry">
            <mxRectangle width="73" height="37" as="alternateBounds" />
          </mxGeometry>
        </mxCell>
        <mxCell id="ocFZIZSYFdL7Tnu5M3Te-176" value="" style="shape=tableRow;horizontal=0;startSize=0;swimlaneHead=0;swimlaneBody=0;strokeColor=inherit;top=0;left=0;bottom=0;right=0;collapsible=0;dropTarget=0;fillColor=none;points=[[0,0.5],[1,0.5]];portConstraint=eastwest;" parent="ocFZIZSYFdL7Tnu5M3Te-169" vertex="1">
          <mxGeometry y="115" width="110" height="38" as="geometry" />
        </mxCell>
        <mxCell id="ocFZIZSYFdL7Tnu5M3Te-177" value="" style="shape=partialRectangle;html=1;whiteSpace=wrap;connectable=0;strokeColor=inherit;overflow=hidden;fillColor=none;top=0;left=0;bottom=0;right=0;pointerEvents=1;" parent="ocFZIZSYFdL7Tnu5M3Te-176" vertex="1">
          <mxGeometry width="37" height="38" as="geometry">
            <mxRectangle width="37" height="38" as="alternateBounds" />
          </mxGeometry>
        </mxCell>
        <mxCell id="ocFZIZSYFdL7Tnu5M3Te-178" value="book_id" style="shape=partialRectangle;html=1;whiteSpace=wrap;connectable=0;strokeColor=inherit;overflow=hidden;fillColor=none;top=0;left=0;bottom=0;right=0;pointerEvents=1;" parent="ocFZIZSYFdL7Tnu5M3Te-176" vertex="1">
          <mxGeometry x="37" width="73" height="38" as="geometry">
            <mxRectangle width="73" height="38" as="alternateBounds" />
          </mxGeometry>
        </mxCell>
        <mxCell id="ocFZIZSYFdL7Tnu5M3Te-179" value="" style="shape=tableRow;horizontal=0;startSize=0;swimlaneHead=0;swimlaneBody=0;strokeColor=inherit;top=0;left=0;bottom=0;right=0;collapsible=0;dropTarget=0;fillColor=none;points=[[0,0.5],[1,0.5]];portConstraint=eastwest;" parent="ocFZIZSYFdL7Tnu5M3Te-169" vertex="1">
          <mxGeometry y="153" width="110" height="37" as="geometry" />
        </mxCell>
        <mxCell id="ocFZIZSYFdL7Tnu5M3Te-180" value="" style="shape=partialRectangle;html=1;whiteSpace=wrap;connectable=0;strokeColor=inherit;overflow=hidden;fillColor=none;top=0;left=0;bottom=0;right=0;pointerEvents=1;" parent="ocFZIZSYFdL7Tnu5M3Te-179" vertex="1">
          <mxGeometry width="37" height="37" as="geometry">
            <mxRectangle width="37" height="37" as="alternateBounds" />
          </mxGeometry>
        </mxCell>
        <mxCell id="ocFZIZSYFdL7Tnu5M3Te-181" value="quantity" style="shape=partialRectangle;html=1;whiteSpace=wrap;connectable=0;strokeColor=inherit;overflow=hidden;fillColor=none;top=0;left=0;bottom=0;right=0;pointerEvents=1;" parent="ocFZIZSYFdL7Tnu5M3Te-179" vertex="1">
          <mxGeometry x="37" width="73" height="37" as="geometry">
            <mxRectangle width="73" height="37" as="alternateBounds" />
          </mxGeometry>
        </mxCell>
        <mxCell id="8h3b-cIPUra0p9pFavSq-22" style="shape=tableRow;horizontal=0;startSize=0;swimlaneHead=0;swimlaneBody=0;strokeColor=inherit;top=0;left=0;bottom=0;right=0;collapsible=0;dropTarget=0;fillColor=none;points=[[0,0.5],[1,0.5]];portConstraint=eastwest;" vertex="1" parent="ocFZIZSYFdL7Tnu5M3Te-169">
          <mxGeometry y="190" width="110" height="37" as="geometry" />
        </mxCell>
        <mxCell id="8h3b-cIPUra0p9pFavSq-23" style="shape=partialRectangle;html=1;whiteSpace=wrap;connectable=0;strokeColor=inherit;overflow=hidden;fillColor=none;top=0;left=0;bottom=0;right=0;pointerEvents=1;" vertex="1" parent="8h3b-cIPUra0p9pFavSq-22">
          <mxGeometry width="37" height="37" as="geometry">
            <mxRectangle width="37" height="37" as="alternateBounds" />
          </mxGeometry>
        </mxCell>
        <mxCell id="8h3b-cIPUra0p9pFavSq-24" value="price" style="shape=partialRectangle;html=1;whiteSpace=wrap;connectable=0;strokeColor=inherit;overflow=hidden;fillColor=none;top=0;left=0;bottom=0;right=0;pointerEvents=1;" vertex="1" parent="8h3b-cIPUra0p9pFavSq-22">
          <mxGeometry x="37" width="73" height="37" as="geometry">
            <mxRectangle width="73" height="37" as="alternateBounds" />
          </mxGeometry>
        </mxCell>
        <mxCell id="ocFZIZSYFdL7Tnu5M3Te-182" value="shipping_method" style="shape=table;startSize=40;container=1;collapsible=0;childLayout=tableLayout;fontStyle=1" parent="1" vertex="1">
          <mxGeometry x="-1090" y="-568.5" width="120" height="145" as="geometry" />
        </mxCell>
        <mxCell id="ocFZIZSYFdL7Tnu5M3Te-183" value="" style="shape=tableRow;horizontal=0;startSize=0;swimlaneHead=0;swimlaneBody=0;strokeColor=inherit;top=0;left=0;bottom=0;right=0;collapsible=0;dropTarget=0;fillColor=none;points=[[0,0.5],[1,0.5]];portConstraint=eastwest;" parent="ocFZIZSYFdL7Tnu5M3Te-182" vertex="1">
          <mxGeometry y="40" width="120" height="35" as="geometry" />
        </mxCell>
        <mxCell id="ocFZIZSYFdL7Tnu5M3Te-184" value="&lt;b&gt;PK&lt;/b&gt;" style="shape=partialRectangle;html=1;whiteSpace=wrap;connectable=0;strokeColor=inherit;overflow=hidden;fillColor=none;top=0;left=0;bottom=0;right=0;pointerEvents=1;" parent="ocFZIZSYFdL7Tnu5M3Te-183" vertex="1">
          <mxGeometry width="28" height="35" as="geometry">
            <mxRectangle width="28" height="35" as="alternateBounds" />
          </mxGeometry>
        </mxCell>
        <mxCell id="ocFZIZSYFdL7Tnu5M3Te-185" value="&lt;b&gt;method_id&lt;/b&gt;" style="shape=partialRectangle;html=1;whiteSpace=wrap;connectable=0;strokeColor=inherit;overflow=hidden;fillColor=none;top=0;left=0;bottom=0;right=0;pointerEvents=1;" parent="ocFZIZSYFdL7Tnu5M3Te-183" vertex="1">
          <mxGeometry x="28" width="92" height="35" as="geometry">
            <mxRectangle width="92" height="35" as="alternateBounds" />
          </mxGeometry>
        </mxCell>
        <mxCell id="ocFZIZSYFdL7Tnu5M3Te-186" value="" style="shape=tableRow;horizontal=0;startSize=0;swimlaneHead=0;swimlaneBody=0;strokeColor=inherit;top=0;left=0;bottom=0;right=0;collapsible=0;dropTarget=0;fillColor=none;points=[[0,0.5],[1,0.5]];portConstraint=eastwest;" parent="ocFZIZSYFdL7Tnu5M3Te-182" vertex="1">
          <mxGeometry y="75" width="120" height="35" as="geometry" />
        </mxCell>
        <mxCell id="ocFZIZSYFdL7Tnu5M3Te-187" value="" style="shape=partialRectangle;html=1;whiteSpace=wrap;connectable=0;strokeColor=inherit;overflow=hidden;fillColor=none;top=0;left=0;bottom=0;right=0;pointerEvents=1;" parent="ocFZIZSYFdL7Tnu5M3Te-186" vertex="1">
          <mxGeometry width="28" height="35" as="geometry">
            <mxRectangle width="28" height="35" as="alternateBounds" />
          </mxGeometry>
        </mxCell>
        <mxCell id="ocFZIZSYFdL7Tnu5M3Te-188" value="method_name" style="shape=partialRectangle;html=1;whiteSpace=wrap;connectable=0;strokeColor=inherit;overflow=hidden;fillColor=none;top=0;left=0;bottom=0;right=0;pointerEvents=1;" parent="ocFZIZSYFdL7Tnu5M3Te-186" vertex="1">
          <mxGeometry x="28" width="92" height="35" as="geometry">
            <mxRectangle width="92" height="35" as="alternateBounds" />
          </mxGeometry>
        </mxCell>
        <mxCell id="8h3b-cIPUra0p9pFavSq-16" style="shape=tableRow;horizontal=0;startSize=0;swimlaneHead=0;swimlaneBody=0;strokeColor=inherit;top=0;left=0;bottom=0;right=0;collapsible=0;dropTarget=0;fillColor=none;points=[[0,0.5],[1,0.5]];portConstraint=eastwest;" vertex="1" parent="ocFZIZSYFdL7Tnu5M3Te-182">
          <mxGeometry y="110" width="120" height="35" as="geometry" />
        </mxCell>
        <mxCell id="8h3b-cIPUra0p9pFavSq-17" style="shape=partialRectangle;html=1;whiteSpace=wrap;connectable=0;strokeColor=inherit;overflow=hidden;fillColor=none;top=0;left=0;bottom=0;right=0;pointerEvents=1;" vertex="1" parent="8h3b-cIPUra0p9pFavSq-16">
          <mxGeometry width="28" height="35" as="geometry">
            <mxRectangle width="28" height="35" as="alternateBounds" />
          </mxGeometry>
        </mxCell>
        <mxCell id="8h3b-cIPUra0p9pFavSq-18" value="cost" style="shape=partialRectangle;html=1;whiteSpace=wrap;connectable=0;strokeColor=inherit;overflow=hidden;fillColor=none;top=0;left=0;bottom=0;right=0;pointerEvents=1;" vertex="1" parent="8h3b-cIPUra0p9pFavSq-16">
          <mxGeometry x="28" width="92" height="35" as="geometry">
            <mxRectangle width="92" height="35" as="alternateBounds" />
          </mxGeometry>
        </mxCell>
        <mxCell id="ocFZIZSYFdL7Tnu5M3Te-189" value="order_history" style="shape=table;startSize=30;container=1;collapsible=0;childLayout=tableLayout;fontStyle=1" parent="1" vertex="1">
          <mxGeometry x="-1450" y="-810" width="120" height="190" as="geometry" />
        </mxCell>
        <mxCell id="ocFZIZSYFdL7Tnu5M3Te-190" value="" style="shape=tableRow;horizontal=0;startSize=0;swimlaneHead=0;swimlaneBody=0;strokeColor=inherit;top=0;left=0;bottom=0;right=0;collapsible=0;dropTarget=0;fillColor=none;points=[[0,0.5],[1,0.5]];portConstraint=eastwest;" parent="ocFZIZSYFdL7Tnu5M3Te-189" vertex="1">
          <mxGeometry y="30" width="120" height="40" as="geometry" />
        </mxCell>
        <mxCell id="ocFZIZSYFdL7Tnu5M3Te-191" value="&lt;b&gt;PK&lt;/b&gt;" style="shape=partialRectangle;html=1;whiteSpace=wrap;connectable=0;strokeColor=inherit;overflow=hidden;fillColor=none;top=0;left=0;bottom=0;right=0;pointerEvents=1;" parent="ocFZIZSYFdL7Tnu5M3Te-190" vertex="1">
          <mxGeometry width="30" height="40" as="geometry">
            <mxRectangle width="30" height="40" as="alternateBounds" />
          </mxGeometry>
        </mxCell>
        <mxCell id="ocFZIZSYFdL7Tnu5M3Te-192" value="&lt;b&gt;history_id&lt;/b&gt;" style="shape=partialRectangle;html=1;whiteSpace=wrap;connectable=0;strokeColor=inherit;overflow=hidden;fillColor=none;top=0;left=0;bottom=0;right=0;pointerEvents=1;" parent="ocFZIZSYFdL7Tnu5M3Te-190" vertex="1">
          <mxGeometry x="30" width="90" height="40" as="geometry">
            <mxRectangle width="90" height="40" as="alternateBounds" />
          </mxGeometry>
        </mxCell>
        <mxCell id="ocFZIZSYFdL7Tnu5M3Te-193" value="" style="shape=tableRow;horizontal=0;startSize=0;swimlaneHead=0;swimlaneBody=0;strokeColor=inherit;top=0;left=0;bottom=0;right=0;collapsible=0;dropTarget=0;fillColor=none;points=[[0,0.5],[1,0.5]];portConstraint=eastwest;" parent="ocFZIZSYFdL7Tnu5M3Te-189" vertex="1">
          <mxGeometry y="70" width="120" height="40" as="geometry" />
        </mxCell>
        <mxCell id="ocFZIZSYFdL7Tnu5M3Te-194" value="" style="shape=partialRectangle;html=1;whiteSpace=wrap;connectable=0;strokeColor=inherit;overflow=hidden;fillColor=none;top=0;left=0;bottom=0;right=0;pointerEvents=1;" parent="ocFZIZSYFdL7Tnu5M3Te-193" vertex="1">
          <mxGeometry width="30" height="40" as="geometry">
            <mxRectangle width="30" height="40" as="alternateBounds" />
          </mxGeometry>
        </mxCell>
        <mxCell id="ocFZIZSYFdL7Tnu5M3Te-195" value="order_id" style="shape=partialRectangle;html=1;whiteSpace=wrap;connectable=0;strokeColor=inherit;overflow=hidden;fillColor=none;top=0;left=0;bottom=0;right=0;pointerEvents=1;" parent="ocFZIZSYFdL7Tnu5M3Te-193" vertex="1">
          <mxGeometry x="30" width="90" height="40" as="geometry">
            <mxRectangle width="90" height="40" as="alternateBounds" />
          </mxGeometry>
        </mxCell>
        <mxCell id="ocFZIZSYFdL7Tnu5M3Te-196" value="" style="shape=tableRow;horizontal=0;startSize=0;swimlaneHead=0;swimlaneBody=0;strokeColor=inherit;top=0;left=0;bottom=0;right=0;collapsible=0;dropTarget=0;fillColor=none;points=[[0,0.5],[1,0.5]];portConstraint=eastwest;" parent="ocFZIZSYFdL7Tnu5M3Te-189" vertex="1">
          <mxGeometry y="110" width="120" height="40" as="geometry" />
        </mxCell>
        <mxCell id="ocFZIZSYFdL7Tnu5M3Te-197" value="" style="shape=partialRectangle;html=1;whiteSpace=wrap;connectable=0;strokeColor=inherit;overflow=hidden;fillColor=none;top=0;left=0;bottom=0;right=0;pointerEvents=1;" parent="ocFZIZSYFdL7Tnu5M3Te-196" vertex="1">
          <mxGeometry width="30" height="40" as="geometry">
            <mxRectangle width="30" height="40" as="alternateBounds" />
          </mxGeometry>
        </mxCell>
        <mxCell id="ocFZIZSYFdL7Tnu5M3Te-198" value="status_id" style="shape=partialRectangle;html=1;whiteSpace=wrap;connectable=0;strokeColor=inherit;overflow=hidden;fillColor=none;top=0;left=0;bottom=0;right=0;pointerEvents=1;" parent="ocFZIZSYFdL7Tnu5M3Te-196" vertex="1">
          <mxGeometry x="30" width="90" height="40" as="geometry">
            <mxRectangle width="90" height="40" as="alternateBounds" />
          </mxGeometry>
        </mxCell>
        <mxCell id="ocFZIZSYFdL7Tnu5M3Te-199" value="" style="shape=tableRow;horizontal=0;startSize=0;swimlaneHead=0;swimlaneBody=0;strokeColor=inherit;top=0;left=0;bottom=0;right=0;collapsible=0;dropTarget=0;fillColor=none;points=[[0,0.5],[1,0.5]];portConstraint=eastwest;" parent="ocFZIZSYFdL7Tnu5M3Te-189" vertex="1">
          <mxGeometry y="150" width="120" height="40" as="geometry" />
        </mxCell>
        <mxCell id="ocFZIZSYFdL7Tnu5M3Te-200" value="" style="shape=partialRectangle;html=1;whiteSpace=wrap;connectable=0;strokeColor=inherit;overflow=hidden;fillColor=none;top=0;left=0;bottom=0;right=0;pointerEvents=1;" parent="ocFZIZSYFdL7Tnu5M3Te-199" vertex="1">
          <mxGeometry width="30" height="40" as="geometry">
            <mxRectangle width="30" height="40" as="alternateBounds" />
          </mxGeometry>
        </mxCell>
        <mxCell id="ocFZIZSYFdL7Tnu5M3Te-201" value="updated at" style="shape=partialRectangle;html=1;whiteSpace=wrap;connectable=0;strokeColor=inherit;overflow=hidden;fillColor=none;top=0;left=0;bottom=0;right=0;pointerEvents=1;" parent="ocFZIZSYFdL7Tnu5M3Te-199" vertex="1">
          <mxGeometry x="30" width="90" height="40" as="geometry">
            <mxRectangle width="90" height="40" as="alternateBounds" />
          </mxGeometry>
        </mxCell>
        <mxCell id="ocFZIZSYFdL7Tnu5M3Te-202" value="order_status" style="shape=table;startSize=30;container=1;collapsible=0;childLayout=tableLayout;fontStyle=1" parent="1" vertex="1">
          <mxGeometry x="-1620" y="-730" width="120" height="110" as="geometry" />
        </mxCell>
        <mxCell id="ocFZIZSYFdL7Tnu5M3Te-203" value="" style="shape=tableRow;horizontal=0;startSize=0;swimlaneHead=0;swimlaneBody=0;strokeColor=inherit;top=0;left=0;bottom=0;right=0;collapsible=0;dropTarget=0;fillColor=none;points=[[0,0.5],[1,0.5]];portConstraint=eastwest;" parent="ocFZIZSYFdL7Tnu5M3Te-202" vertex="1">
          <mxGeometry y="30" width="120" height="40" as="geometry" />
        </mxCell>
        <mxCell id="ocFZIZSYFdL7Tnu5M3Te-204" value="&lt;b&gt;PK&lt;/b&gt;" style="shape=partialRectangle;html=1;whiteSpace=wrap;connectable=0;strokeColor=inherit;overflow=hidden;fillColor=none;top=0;left=0;bottom=0;right=0;pointerEvents=1;" parent="ocFZIZSYFdL7Tnu5M3Te-203" vertex="1">
          <mxGeometry width="30" height="40" as="geometry">
            <mxRectangle width="30" height="40" as="alternateBounds" />
          </mxGeometry>
        </mxCell>
        <mxCell id="ocFZIZSYFdL7Tnu5M3Te-205" value="&lt;b&gt;status_id&lt;/b&gt;" style="shape=partialRectangle;html=1;whiteSpace=wrap;connectable=0;strokeColor=inherit;overflow=hidden;fillColor=none;top=0;left=0;bottom=0;right=0;pointerEvents=1;" parent="ocFZIZSYFdL7Tnu5M3Te-203" vertex="1">
          <mxGeometry x="30" width="90" height="40" as="geometry">
            <mxRectangle width="90" height="40" as="alternateBounds" />
          </mxGeometry>
        </mxCell>
        <mxCell id="ocFZIZSYFdL7Tnu5M3Te-206" value="" style="shape=tableRow;horizontal=0;startSize=0;swimlaneHead=0;swimlaneBody=0;strokeColor=inherit;top=0;left=0;bottom=0;right=0;collapsible=0;dropTarget=0;fillColor=none;points=[[0,0.5],[1,0.5]];portConstraint=eastwest;" parent="ocFZIZSYFdL7Tnu5M3Te-202" vertex="1">
          <mxGeometry y="70" width="120" height="40" as="geometry" />
        </mxCell>
        <mxCell id="ocFZIZSYFdL7Tnu5M3Te-207" value="" style="shape=partialRectangle;html=1;whiteSpace=wrap;connectable=0;strokeColor=inherit;overflow=hidden;fillColor=none;top=0;left=0;bottom=0;right=0;pointerEvents=1;" parent="ocFZIZSYFdL7Tnu5M3Te-206" vertex="1">
          <mxGeometry width="30" height="40" as="geometry">
            <mxRectangle width="30" height="40" as="alternateBounds" />
          </mxGeometry>
        </mxCell>
        <mxCell id="ocFZIZSYFdL7Tnu5M3Te-208" value="status_name" style="shape=partialRectangle;html=1;whiteSpace=wrap;connectable=0;strokeColor=inherit;overflow=hidden;fillColor=none;top=0;left=0;bottom=0;right=0;pointerEvents=1;" parent="ocFZIZSYFdL7Tnu5M3Te-206" vertex="1">
          <mxGeometry x="30" width="90" height="40" as="geometry">
            <mxRectangle width="90" height="40" as="alternateBounds" />
          </mxGeometry>
        </mxCell>
        <mxCell id="ocFZIZSYFdL7Tnu5M3Te-65" value="customer" style="shape=table;startSize=30;container=1;collapsible=0;childLayout=tableLayout;fontStyle=1" parent="1" vertex="1">
          <mxGeometry x="-1090" y="-735" width="140" height="156" as="geometry" />
        </mxCell>
        <mxCell id="ocFZIZSYFdL7Tnu5M3Te-66" value="" style="shape=tableRow;horizontal=0;startSize=0;swimlaneHead=0;swimlaneBody=0;strokeColor=inherit;top=0;left=0;bottom=0;right=0;collapsible=0;dropTarget=0;fillColor=none;points=[[0,0.5],[1,0.5]];portConstraint=eastwest;fontStyle=1" parent="ocFZIZSYFdL7Tnu5M3Te-65" vertex="1">
          <mxGeometry y="30" width="140" height="30" as="geometry" />
        </mxCell>
        <mxCell id="ocFZIZSYFdL7Tnu5M3Te-67" value="&lt;b&gt;PK&lt;/b&gt;" style="shape=partialRectangle;html=1;whiteSpace=wrap;connectable=0;strokeColor=inherit;overflow=hidden;fillColor=none;top=0;left=0;bottom=0;right=0;pointerEvents=1;" parent="ocFZIZSYFdL7Tnu5M3Te-66" vertex="1">
          <mxGeometry width="26" height="30" as="geometry">
            <mxRectangle width="26" height="30" as="alternateBounds" />
          </mxGeometry>
        </mxCell>
        <mxCell id="ocFZIZSYFdL7Tnu5M3Te-68" value="&lt;b&gt;customer_id&lt;/b&gt;" style="shape=partialRectangle;html=1;whiteSpace=wrap;connectable=0;strokeColor=inherit;overflow=hidden;fillColor=none;top=0;left=0;bottom=0;right=0;pointerEvents=1;" parent="ocFZIZSYFdL7Tnu5M3Te-66" vertex="1">
          <mxGeometry x="26" width="114" height="30" as="geometry">
            <mxRectangle width="114" height="30" as="alternateBounds" />
          </mxGeometry>
        </mxCell>
        <mxCell id="ocFZIZSYFdL7Tnu5M3Te-69" value="" style="shape=tableRow;horizontal=0;startSize=0;swimlaneHead=0;swimlaneBody=0;strokeColor=inherit;top=0;left=0;bottom=0;right=0;collapsible=0;dropTarget=0;fillColor=none;points=[[0,0.5],[1,0.5]];portConstraint=eastwest;" parent="ocFZIZSYFdL7Tnu5M3Te-65" vertex="1">
          <mxGeometry y="60" width="140" height="27" as="geometry" />
        </mxCell>
        <mxCell id="ocFZIZSYFdL7Tnu5M3Te-70" value="" style="shape=partialRectangle;html=1;whiteSpace=wrap;connectable=0;strokeColor=inherit;overflow=hidden;fillColor=none;top=0;left=0;bottom=0;right=0;pointerEvents=1;" parent="ocFZIZSYFdL7Tnu5M3Te-69" vertex="1">
          <mxGeometry width="26" height="27" as="geometry">
            <mxRectangle width="26" height="27" as="alternateBounds" />
          </mxGeometry>
        </mxCell>
        <mxCell id="ocFZIZSYFdL7Tnu5M3Te-71" value="first name" style="shape=partialRectangle;html=1;whiteSpace=wrap;connectable=0;strokeColor=inherit;overflow=hidden;fillColor=none;top=0;left=0;bottom=0;right=0;pointerEvents=1;" parent="ocFZIZSYFdL7Tnu5M3Te-69" vertex="1">
          <mxGeometry x="26" width="114" height="27" as="geometry">
            <mxRectangle width="114" height="27" as="alternateBounds" />
          </mxGeometry>
        </mxCell>
        <mxCell id="ocFZIZSYFdL7Tnu5M3Te-72" value="" style="shape=tableRow;horizontal=0;startSize=0;swimlaneHead=0;swimlaneBody=0;strokeColor=inherit;top=0;left=0;bottom=0;right=0;collapsible=0;dropTarget=0;fillColor=none;points=[[0,0.5],[1,0.5]];portConstraint=eastwest;" parent="ocFZIZSYFdL7Tnu5M3Te-65" vertex="1">
          <mxGeometry y="87" width="140" height="23" as="geometry" />
        </mxCell>
        <mxCell id="ocFZIZSYFdL7Tnu5M3Te-73" value="" style="shape=partialRectangle;html=1;whiteSpace=wrap;connectable=0;strokeColor=inherit;overflow=hidden;fillColor=none;top=0;left=0;bottom=0;right=0;pointerEvents=1;" parent="ocFZIZSYFdL7Tnu5M3Te-72" vertex="1">
          <mxGeometry width="26" height="23" as="geometry">
            <mxRectangle width="26" height="23" as="alternateBounds" />
          </mxGeometry>
        </mxCell>
        <mxCell id="ocFZIZSYFdL7Tnu5M3Te-74" value="second name" style="shape=partialRectangle;html=1;whiteSpace=wrap;connectable=0;strokeColor=inherit;overflow=hidden;fillColor=none;top=0;left=0;bottom=0;right=0;pointerEvents=1;" parent="ocFZIZSYFdL7Tnu5M3Te-72" vertex="1">
          <mxGeometry x="26" width="114" height="23" as="geometry">
            <mxRectangle width="114" height="23" as="alternateBounds" />
          </mxGeometry>
        </mxCell>
        <mxCell id="8h3b-cIPUra0p9pFavSq-31" style="shape=tableRow;horizontal=0;startSize=0;swimlaneHead=0;swimlaneBody=0;strokeColor=inherit;top=0;left=0;bottom=0;right=0;collapsible=0;dropTarget=0;fillColor=none;points=[[0,0.5],[1,0.5]];portConstraint=eastwest;" vertex="1" parent="ocFZIZSYFdL7Tnu5M3Te-65">
          <mxGeometry y="110" width="140" height="23" as="geometry" />
        </mxCell>
        <mxCell id="8h3b-cIPUra0p9pFavSq-32" style="shape=partialRectangle;html=1;whiteSpace=wrap;connectable=0;strokeColor=inherit;overflow=hidden;fillColor=none;top=0;left=0;bottom=0;right=0;pointerEvents=1;" vertex="1" parent="8h3b-cIPUra0p9pFavSq-31">
          <mxGeometry width="26" height="23" as="geometry">
            <mxRectangle width="26" height="23" as="alternateBounds" />
          </mxGeometry>
        </mxCell>
        <mxCell id="8h3b-cIPUra0p9pFavSq-33" value="phone number" style="shape=partialRectangle;html=1;whiteSpace=wrap;connectable=0;strokeColor=inherit;overflow=hidden;fillColor=none;top=0;left=0;bottom=0;right=0;pointerEvents=1;" vertex="1" parent="8h3b-cIPUra0p9pFavSq-31">
          <mxGeometry x="26" width="114" height="23" as="geometry">
            <mxRectangle width="114" height="23" as="alternateBounds" />
          </mxGeometry>
        </mxCell>
        <mxCell id="8h3b-cIPUra0p9pFavSq-34" style="shape=tableRow;horizontal=0;startSize=0;swimlaneHead=0;swimlaneBody=0;strokeColor=inherit;top=0;left=0;bottom=0;right=0;collapsible=0;dropTarget=0;fillColor=none;points=[[0,0.5],[1,0.5]];portConstraint=eastwest;" vertex="1" parent="ocFZIZSYFdL7Tnu5M3Te-65">
          <mxGeometry y="133" width="140" height="23" as="geometry" />
        </mxCell>
        <mxCell id="8h3b-cIPUra0p9pFavSq-35" style="shape=partialRectangle;html=1;whiteSpace=wrap;connectable=0;strokeColor=inherit;overflow=hidden;fillColor=none;top=0;left=0;bottom=0;right=0;pointerEvents=1;" vertex="1" parent="8h3b-cIPUra0p9pFavSq-34">
          <mxGeometry width="26" height="23" as="geometry">
            <mxRectangle width="26" height="23" as="alternateBounds" />
          </mxGeometry>
        </mxCell>
        <mxCell id="8h3b-cIPUra0p9pFavSq-36" value="email" style="shape=partialRectangle;html=1;whiteSpace=wrap;connectable=0;strokeColor=inherit;overflow=hidden;fillColor=none;top=0;left=0;bottom=0;right=0;pointerEvents=1;" vertex="1" parent="8h3b-cIPUra0p9pFavSq-34">
          <mxGeometry x="26" width="114" height="23" as="geometry">
            <mxRectangle width="114" height="23" as="alternateBounds" />
          </mxGeometry>
        </mxCell>
        <mxCell id="ocFZIZSYFdL7Tnu5M3Te-222" value="" style="edgeStyle=entityRelationEdgeStyle;fontSize=12;html=1;endArrow=ERoneToMany;rounded=0;exitX=1;exitY=0.5;exitDx=0;exitDy=0;entryX=-0.053;entryY=0.47;entryDx=0;entryDy=0;entryPerimeter=0;" parent="1" source="ocFZIZSYFdL7Tnu5M3Te-95" target="ocFZIZSYFdL7Tnu5M3Te-99" edge="1">
          <mxGeometry width="100" height="100" relative="1" as="geometry">
            <mxPoint x="-540" y="190" as="sourcePoint" />
            <mxPoint x="-460" y="90" as="targetPoint" />
            <Array as="points">
              <mxPoint x="-530" y="180" />
              <mxPoint x="-520" y="180" />
            </Array>
          </mxGeometry>
        </mxCell>
        <mxCell id="ocFZIZSYFdL7Tnu5M3Te-231" style="edgeStyle=entityRelationEdgeStyle;shape=connector;rounded=0;orthogonalLoop=1;jettySize=auto;html=1;entryX=0;entryY=0.5;entryDx=0;entryDy=0;strokeColor=default;align=center;verticalAlign=middle;fontFamily=Helvetica;fontSize=12;fontColor=default;labelBackgroundColor=default;endArrow=ERoneToMany;" parent="1" source="ocFZIZSYFdL7Tnu5M3Te-88" target="ocFZIZSYFdL7Tnu5M3Te-105" edge="1">
          <mxGeometry relative="1" as="geometry">
            <mxPoint x="-680" y="230" as="sourcePoint" />
            <mxPoint x="-279.99999999999994" y="190.39999999999998" as="targetPoint" />
            <Array as="points">
              <mxPoint x="-690" y="230.4" />
              <mxPoint x="-680" y="230.4" />
            </Array>
          </mxGeometry>
        </mxCell>
        <mxCell id="ocFZIZSYFdL7Tnu5M3Te-232" style="edgeStyle=entityRelationEdgeStyle;shape=connector;rounded=0;orthogonalLoop=1;jettySize=auto;html=1;exitX=1;exitY=0.5;exitDx=0;exitDy=0;entryX=-0.05;entryY=0.71;entryDx=0;entryDy=0;entryPerimeter=0;strokeColor=default;align=center;verticalAlign=middle;fontFamily=Helvetica;fontSize=12;fontColor=default;labelBackgroundColor=default;endArrow=ERoneToMany;" parent="1" source="ocFZIZSYFdL7Tnu5M3Te-85" target="ocFZIZSYFdL7Tnu5M3Te-113" edge="1">
          <mxGeometry relative="1" as="geometry">
            <Array as="points">
              <mxPoint x="-270" y="113" />
            </Array>
          </mxGeometry>
        </mxCell>
        <mxCell id="ocFZIZSYFdL7Tnu5M3Te-233" style="edgeStyle=entityRelationEdgeStyle;shape=connector;rounded=0;orthogonalLoop=1;jettySize=auto;html=1;exitX=1;exitY=0.5;exitDx=0;exitDy=0;entryX=0;entryY=0.5;entryDx=0;entryDy=0;strokeColor=default;align=center;verticalAlign=middle;fontFamily=Helvetica;fontSize=12;fontColor=default;labelBackgroundColor=default;endArrow=ERoneToMany;" parent="1" source="ocFZIZSYFdL7Tnu5M3Te-66" target="ocFZIZSYFdL7Tnu5M3Te-120" edge="1">
          <mxGeometry relative="1" as="geometry" />
        </mxCell>
        <mxCell id="ocFZIZSYFdL7Tnu5M3Te-234" style="edgeStyle=entityRelationEdgeStyle;shape=connector;rounded=0;orthogonalLoop=1;jettySize=auto;html=1;exitX=1;exitY=0.5;exitDx=0;exitDy=0;entryX=0;entryY=0.5;entryDx=0;entryDy=0;strokeColor=default;align=center;verticalAlign=middle;fontFamily=Helvetica;fontSize=12;fontColor=default;labelBackgroundColor=default;endArrow=ERoneToMany;" parent="1" source="ocFZIZSYFdL7Tnu5M3Te-123" target="ocFZIZSYFdL7Tnu5M3Te-137" edge="1">
          <mxGeometry relative="1" as="geometry" />
        </mxCell>
        <mxCell id="ocFZIZSYFdL7Tnu5M3Te-236" style="edgeStyle=entityRelationEdgeStyle;shape=connector;rounded=0;orthogonalLoop=1;jettySize=auto;html=1;exitX=1;exitY=0.5;exitDx=0;exitDy=0;entryX=0;entryY=0.5;entryDx=0;entryDy=0;strokeColor=default;align=center;verticalAlign=middle;fontFamily=Helvetica;fontSize=12;fontColor=default;labelBackgroundColor=default;endArrow=ERoneToMany;" parent="1" source="ocFZIZSYFdL7Tnu5M3Te-126" target="ocFZIZSYFdL7Tnu5M3Te-130" edge="1">
          <mxGeometry relative="1" as="geometry" />
        </mxCell>
        <mxCell id="ocFZIZSYFdL7Tnu5M3Te-237" style="edgeStyle=entityRelationEdgeStyle;shape=connector;rounded=0;orthogonalLoop=1;jettySize=auto;html=1;exitX=1;exitY=0.5;exitDx=0;exitDy=0;entryX=0;entryY=0.5;entryDx=0;entryDy=0;strokeColor=default;align=center;verticalAlign=middle;fontFamily=Helvetica;fontSize=12;fontColor=default;labelBackgroundColor=default;endArrow=ERoneToMany;" parent="1" source="ocFZIZSYFdL7Tnu5M3Te-146" target="ocFZIZSYFdL7Tnu5M3Te-150" edge="1">
          <mxGeometry relative="1" as="geometry" />
        </mxCell>
        <mxCell id="ocFZIZSYFdL7Tnu5M3Te-247" style="edgeStyle=entityRelationEdgeStyle;shape=connector;rounded=0;orthogonalLoop=1;jettySize=auto;html=1;exitX=1;exitY=0.5;exitDx=0;exitDy=0;strokeColor=default;align=center;verticalAlign=middle;fontFamily=Helvetica;fontSize=12;fontColor=default;labelBackgroundColor=default;endArrow=ERoneToMany;" parent="1" source="ocFZIZSYFdL7Tnu5M3Te-160" target="ocFZIZSYFdL7Tnu5M3Te-66" edge="1">
          <mxGeometry relative="1" as="geometry" />
        </mxCell>
        <mxCell id="ocFZIZSYFdL7Tnu5M3Te-263" style="edgeStyle=entityRelationEdgeStyle;shape=connector;rounded=0;orthogonalLoop=1;jettySize=auto;html=1;exitX=1;exitY=0.5;exitDx=0;exitDy=0;entryX=0;entryY=0.5;entryDx=0;entryDy=0;strokeColor=default;align=center;verticalAlign=middle;fontFamily=Helvetica;fontSize=12;fontColor=default;labelBackgroundColor=default;endArrow=ERoneToMany;" parent="1" source="ocFZIZSYFdL7Tnu5M3Te-157" target="ocFZIZSYFdL7Tnu5M3Te-173" edge="1">
          <mxGeometry relative="1" as="geometry" />
        </mxCell>
        <mxCell id="8h3b-cIPUra0p9pFavSq-44" style="edgeStyle=entityRelationEdgeStyle;shape=connector;rounded=0;orthogonalLoop=1;jettySize=auto;html=1;exitX=1;exitY=0.5;exitDx=0;exitDy=0;entryX=0;entryY=0.5;entryDx=0;entryDy=0;strokeColor=default;align=center;verticalAlign=middle;fontFamily=Helvetica;fontSize=12;fontColor=default;labelBackgroundColor=default;endArrow=ERoneToMany;" edge="1" parent="1" source="ocFZIZSYFdL7Tnu5M3Te-146" target="8h3b-cIPUra0p9pFavSq-40">
          <mxGeometry relative="1" as="geometry" />
        </mxCell>
        <mxCell id="8h3b-cIPUra0p9pFavSq-45" style="edgeStyle=entityRelationEdgeStyle;shape=connector;rounded=0;orthogonalLoop=1;jettySize=auto;html=1;exitX=1;exitY=0.5;exitDx=0;exitDy=0;entryX=0;entryY=0.5;entryDx=0;entryDy=0;strokeColor=default;align=center;verticalAlign=middle;fontFamily=Helvetica;fontSize=12;fontColor=default;labelBackgroundColor=default;endArrow=ERoneToMany;" edge="1" parent="1" source="ocFZIZSYFdL7Tnu5M3Te-166" target="ocFZIZSYFdL7Tnu5M3Te-183">
          <mxGeometry relative="1" as="geometry" />
        </mxCell>
        <mxCell id="8h3b-cIPUra0p9pFavSq-48" style="edgeStyle=entityRelationEdgeStyle;shape=connector;rounded=0;orthogonalLoop=1;jettySize=auto;html=1;exitX=0;exitY=0.5;exitDx=0;exitDy=0;strokeColor=default;align=center;verticalAlign=middle;fontFamily=Helvetica;fontSize=12;fontColor=default;labelBackgroundColor=default;endArrow=ERoneToMany;" edge="1" parent="1" source="ocFZIZSYFdL7Tnu5M3Te-196" target="ocFZIZSYFdL7Tnu5M3Te-203">
          <mxGeometry relative="1" as="geometry" />
        </mxCell>
        <mxCell id="8h3b-cIPUra0p9pFavSq-49" style="edgeStyle=entityRelationEdgeStyle;shape=connector;rounded=0;orthogonalLoop=1;jettySize=auto;html=1;exitX=1;exitY=0.5;exitDx=0;exitDy=0;strokeColor=default;align=center;verticalAlign=middle;fontFamily=Helvetica;fontSize=12;fontColor=default;labelBackgroundColor=default;endArrow=ERoneToMany;" edge="1" parent="1" source="ocFZIZSYFdL7Tnu5M3Te-193">
          <mxGeometry relative="1" as="geometry">
            <mxPoint x="-1290" y="-720" as="targetPoint" />
          </mxGeometry>
        </mxCell>
        <mxCell id="8h3b-cIPUra0p9pFavSq-54" style="edgeStyle=entityRelationEdgeStyle;shape=connector;rounded=0;orthogonalLoop=1;jettySize=auto;html=1;exitX=1;exitY=0.5;exitDx=0;exitDy=0;entryX=0.003;entryY=0.667;entryDx=0;entryDy=0;entryPerimeter=0;strokeColor=default;align=center;verticalAlign=middle;fontFamily=Helvetica;fontSize=12;fontColor=default;labelBackgroundColor=default;endArrow=ERoneToMany;" edge="1" parent="1" source="ocFZIZSYFdL7Tnu5M3Te-76" target="ocFZIZSYFdL7Tnu5M3Te-92">
          <mxGeometry relative="1" as="geometry" />
        </mxCell>
        <mxCell id="8h3b-cIPUra0p9pFavSq-56" style="edgeStyle=entityRelationEdgeStyle;shape=connector;rounded=0;orthogonalLoop=1;jettySize=auto;html=1;exitX=1;exitY=0.5;exitDx=0;exitDy=0;entryX=0.009;entryY=0.69;entryDx=0;entryDy=0;entryPerimeter=0;strokeColor=default;align=center;verticalAlign=middle;fontFamily=Helvetica;fontSize=12;fontColor=default;labelBackgroundColor=default;endArrow=ERoneToMany;" edge="1" parent="1" source="ocFZIZSYFdL7Tnu5M3Te-176" target="ocFZIZSYFdL7Tnu5M3Te-76">
          <mxGeometry relative="1" as="geometry" />
        </mxCell>
      </root>
    </mxGraphModel>
  </diagram>
</mxfile>

